<svg width="3360" height="1242" xmlns="http://www.w3.org/2000/svg" overflow="hidden"><defs><clipPath id="a"><path d="M202 358h3360v1242H202z"/></clipPath></defs><g clip-path="url(#a)" transform="translate(-202 -358)"><path fill="#7F7F7F" fill-opacity=".4" d="M212 358h3349v1242H212z"/><path fill="#FFF" fill-opacity=".749" d="M212 358h3349v1242H212z"/><text font-family="Arial,Arial_MSFontService,sans-serif" font-weight="400" font-size="64" transform="translate(475.479 449)">{ <tspan x="38.958" y="0">Fred: Barney, Barney: </tspan><tspan x="677.577" y="0">4, </tspan><tspan x="748.619" y="0">Betty: Barney, Wilma: Betty </tspan><tspan x="1541.35" y="0">}</tspan></text><path stroke="#ED7D31" stroke-width="2.292" stroke-miterlimit="8" fill="#F8CBAD" d="M653 949h304v137H653z"/><text font-family="Malgun Gothic,Malgun Gothic_MSFontService,sans-serif" font-weight="400" font-size="64" transform="translate(706.884 1042)">Barney<tspan font-family="Arial,Arial_MSFontService,sans-serif" x="33.892" y="104">Fred</tspan></text><path stroke="#ED7D31" stroke-width="2.292" stroke-miterlimit="8" fill="#F8CBAD" d="M957 640h304v137H957z"/><text font-family="Malgun Gothic,Malgun Gothic_MSFontService,sans-serif" font-weight="400" font-size="64" transform="translate(1091.33 733)">4<tspan font-family="Arial,Arial_MSFontService,sans-serif" x="-81.719" y="104">Barney</tspan></text><path stroke="#ED7D31" stroke-width="2.292" stroke-miterlimit="8" fill="#F8CBAD" d="M1261 949h304v137h-304z"/><text font-family="Malgun Gothic,Malgun Gothic_MSFontService,sans-serif" font-weight="400" font-size="64" transform="translate(1315.07 1042)">Barney<tspan font-family="Arial,Arial_MSFontService,sans-serif" x="23.258" y="104">Betty</tspan></text><path stroke="#ED7D31" stroke-width="2.292" stroke-miterlimit="8" fill="#F8CBAD" d="M1261 1312h304v137h-304z"/><text font-family="Malgun Gothic,Malgun Gothic_MSFontService,sans-serif" font-weight="400" font-size="64" transform="translate(1339.13 1405)">Betty<tspan font-family="Arial,Arial_MSFontService,sans-serif" x="-17.84" y="104">Wilma</tspan><tspan font-size="73" x="-1092.58" y="-946">방법</tspan><tspan font-family="Arial,Arial_MSFontService,sans-serif" font-size="73" x="-945.909" y="-946">1</tspan></text><path d="m805.5 950.074 171.468-135.575M1414.26 950.074 1242.5 814.5M1413.5 1311.58l.352-133.084" stroke="#ED7D31" stroke-width="6.875" stroke-miterlimit="8" fill="none"/><text font-family="Malgun Gothic,Malgun Gothic_MSFontService,sans-serif" font-weight="400" font-size="64" transform="translate(2385.74 450)">{ <tspan x="41.823" y="0">Fred: 0, Barney: 1, Betty: 2, Wilma: 3 </tspan><tspan x="1117.3" y="0">}</tspan></text><path stroke="#ED7D31" stroke-width="2.292" stroke-miterlimit="8" fill="#F8CBAD" d="M2461 954h304v137h-304z"/><text font-family="Malgun Gothic,Malgun Gothic_MSFontService,sans-serif" font-weight="400" font-size="64" transform="translate(2477.09 1047)">1(Barney)<tspan font-family="Arial,Arial_MSFontService,sans-serif" x="33.424" y="104">0(Fred)</tspan></text><path stroke="#ED7D31" stroke-width="2.292" stroke-miterlimit="8" fill="#F8CBAD" d="M2765 645h304v137h-304z"/><text font-family="Malgun Gothic,Malgun Gothic_MSFontService,sans-serif" font-weight="400" font-size="64" transform="translate(2885.59 738)">-<tspan x="26.354" y="0">4</tspan><tspan font-family="Arial,Arial_MSFontService,sans-serif" x="-105.147" y="110">1(</tspan><tspan font-family="Arial,Arial_MSFontService,sans-serif" x="-48.428" y="110">Barney</tspan><tspan font-family="Arial,Arial_MSFontService,sans-serif" x="154.385" y="110">)</tspan></text><path stroke="#ED7D31" stroke-width="2.292" stroke-miterlimit="8" fill="#F8CBAD" d="M3075 954h304v137h-304z"/><text font-family="Malgun Gothic,Malgun Gothic_MSFontService,sans-serif" font-weight="400" font-size="64" transform="translate(3091.69 1047)">1(Barney)<tspan font-family="Arial,Arial_MSFontService,sans-serif" x="16.521" y="105">2(Betty)</tspan></text><path stroke="#ED7D31" stroke-width="2.292" stroke-miterlimit="8" fill="#F8CBAD" d="M3069 1317h303v136h-303z"/><text font-family="Malgun Gothic,Malgun Gothic_MSFontService,sans-serif" font-weight="400" font-size="64" transform="translate(3109.33 1410)">2(Betty)<tspan font-family="Arial,Arial_MSFontService,sans-serif" x="-19.342" y="102">3(Wilma)</tspan><tspan font-size="73" x="-952.286" y="-951">방법</tspan><tspan font-size="73" x="-805.619" y="-951">2</tspan></text><path d="m2613.5 954.583 134.863-129.084M3228.08 954.583 3088.5 825.5M3220.5 1317.65l.294-132.147" stroke="#ED7D31" stroke-width="6.875" stroke-miterlimit="8" fill="none"/><path d="M2709.57 504.18v103.583M2958.53 504.18v103.583M3207.49 504.18v103.583M2460.61 504.18v103.583M3456.45 504.18v103.583M2458.32 506.471h1000.42M2458.32 605.471h1000.42" stroke="#000" stroke-width="4.583" stroke-linejoin="round" stroke-miterlimit="10" fill="none"/><text font-family="Malgun Gothic,Malgun Gothic_MSFontService,sans-serif" font-weight="400" font-size="55" transform="translate(2569.91 577)">1<tspan x="237.789" y="0">-</tspan>4<tspan x="497.922" y="0">1</tspan><tspan x="746.883" y="0">2</tspan></text></g></svg>