<svg width="4336" height="1381" xmlns="http://www.w3.org/2000/svg" xmlns:xlink="http://www.w3.org/1999/xlink" overflow="hidden"><defs><clipPath id="clip0"><rect x="92" y="261" width="4336" height="1381"/></clipPath></defs><g clip-path="url(#clip0)" transform="translate(-92 -261)"><rect x="92.0001" y="272" width="4336" height="1370" fill="#7F7F7F" fill-opacity="0.4"/><rect x="92.0001" y="272" width="4336" height="1370" fill="#FFFFFF" fill-opacity="0.74902"/><path d="M1089 1509C1089 1473.65 1117.65 1445 1153 1445 1188.35 1445 1217 1473.65 1217 1509 1217 1544.35 1188.35 1573 1153 1573 1117.65 1573 1089 1544.35 1089 1509Z" stroke="#ED7D31" stroke-width="2.29167" stroke-miterlimit="8" fill="#F8CBAD" fill-rule="evenodd"/><text font-family="Malgun Gothic,Malgun Gothic_MSFontService,sans-serif" font-weight="400" font-size="64" transform="matrix(1 0 0 1 1135.41 1533)">9</text><path d="M782 936C782 900.654 810.654 872 846 872 881.346 872 910 900.654 910 936 910 971.346 881.346 1000 846 1000 810.654 1000 782 971.346 782 936Z" stroke="#ED7D31" stroke-width="2.29167" stroke-miterlimit="8" fill="#F8CBAD" fill-rule="evenodd"/><text font-family="Malgun Gothic,Malgun Gothic_MSFontService,sans-serif" font-weight="400" font-size="64" transform="matrix(1 0 0 1 828.107 961)">5</text><path d="M285 1399.5C285 1364.43 313.43 1336 348.5 1336 383.57 1336 412 1364.43 412 1399.5 412 1434.57 383.57 1463 348.5 1463 313.43 1463 285 1434.57 285 1399.5Z" stroke="#ED7D31" stroke-width="2.29167" stroke-miterlimit="8" fill="#F8CBAD" fill-rule="evenodd"/><text font-family="Malgun Gothic,Malgun Gothic_MSFontService,sans-serif" font-weight="400" font-size="64" transform="matrix(1 0 0 1 331.027 1424)">7</text><path d="M544 1195.5C544 1160.43 572.43 1132 607.5 1132 642.57 1132 671 1160.43 671 1195.5 671 1230.57 642.57 1259 607.5 1259 572.43 1259 544 1230.57 544 1195.5Z" stroke="#ED7D31" stroke-width="2.29167" stroke-miterlimit="8" fill="#F8CBAD" fill-rule="evenodd"/><text font-family="Malgun Gothic,Malgun Gothic_MSFontService,sans-serif" font-weight="400" font-size="64" transform="matrix(1 0 0 1 589.491 1220)">6</text><path d="M480 566.5C480 531.43 508.43 503 543.5 503 578.57 503 607 531.43 607 566.5 607 601.57 578.57 630 543.5 630 508.43 630 480 601.57 480 566.5Z" stroke="#ED7D31" stroke-width="2.29167" stroke-miterlimit="8" fill="#F8CBAD" fill-rule="evenodd"/><text font-family="Malgun Gothic,Malgun Gothic_MSFontService,sans-serif" font-weight="400" font-size="64" transform="matrix(1 0 0 1 508.04 591)">11</text><path d="M1089 1198C1089 1162.65 1117.65 1134 1153 1134 1188.35 1134 1217 1162.65 1217 1198 1217 1233.35 1188.35 1262 1153 1262 1117.65 1262 1089 1233.35 1089 1198Z" stroke="#ED7D31" stroke-width="2.29167" stroke-miterlimit="8" fill="#F8CBAD" fill-rule="evenodd"/><text font-family="Malgun Gothic,Malgun Gothic_MSFontService,sans-serif" font-weight="400" font-size="64" transform="matrix(1 0 0 1 1135.41 1223)">4</text><path d="M1395 928.5C1395 893.43 1423.43 865 1458.5 865 1493.57 865 1522 893.43 1522 928.5 1522 963.57 1493.57 992 1458.5 992 1423.43 992 1395 963.57 1395 928.5Z" stroke="#ED7D31" stroke-width="2.29167" stroke-miterlimit="8" fill="#F8CBAD" fill-rule="evenodd"/><text font-family="Malgun Gothic,Malgun Gothic_MSFontService,sans-serif" font-weight="400" font-size="64" transform="matrix(1 0 0 1 1440.81 953)">3</text><path d="M241 566.5C241 531.43 269.654 503 305 503 340.346 503 369 531.43 369 566.5 369 601.57 340.346 630 305 630 269.654 630 241 601.57 241 566.5Z" stroke="#ED7D31" stroke-width="2.29167" stroke-miterlimit="8" fill="#F8CBAD" fill-rule="evenodd"/><text font-family="Malgun Gothic,Malgun Gothic_MSFontService,sans-serif" font-weight="400" font-size="64" transform="matrix(1 0 0 1 269.335 591)">10</text><path d="M887 585.5C887 550.43 915.43 522 950.5 522 985.57 522 1014 550.43 1014 585.5 1014 620.57 985.57 649 950.5 649 915.43 649 887 620.57 887 585.5Z" stroke="#ED7D31" stroke-width="2.29167" stroke-miterlimit="8" fill="#F8CBAD" fill-rule="evenodd"/><text font-family="Malgun Gothic,Malgun Gothic_MSFontService,sans-serif" font-weight="400" font-size="64" transform="matrix(1 0 0 1 932.996 610)">1</text><path d="M8.34653e-06-3.4375 125.716-3.43719 125.716 3.43781-8.34653e-06 3.4375ZM121.133-13.7497 148.633 0.000360892 121.133 13.7503Z" fill="#ED8036" transform="matrix(-1 0 0 1 499.133 612.5)"/><path d="M350.5 519.062 476.216 519.063 476.216 525.938 350.5 525.938ZM471.633 508.75 499.133 522.5 471.633 536.25Z" fill="#ED8036"/><path d="M2.19885-2.64224 199.921 161.9 195.523 167.185-2.19885 2.64224ZM202.994 151.041 215.337 179.201 185.403 172.179Z" fill="#ED8036" transform="matrix(-1 0 0 1 1413.84 974.5)"/><path d="M3.4375-6.75965e-06 3.43782 160.609-3.43718 160.609-3.4375 6.75965e-06ZM13.7503 156.025 0.000360892 183.525-13.7497 156.025Z" fill="#ED8036" transform="matrix(1 0 0 -1 1153.5 1446.03)"/><path d="M1106.59 1156.09 907.338 998.416 911.604 993.024 1110.86 1150.7ZM904.533 1009.35 891.5 981.5 921.597 987.782Z" fill="#ED8036"/><path d="M3.33696-0.82529 57.6872 218.933 51.0133 220.584-3.33696 0.82529ZM66.5977 212.008 59.8522 242.005 39.902 218.611Z" fill="#ED8036" transform="matrix(1 0 0 -1 846.5 872.505)"/><path d="M1014.55 582.063 1264.32 585.742 1264.21 592.616 1014.45 588.937ZM1259.88 575.363 1287.18 589.516 1259.48 602.86Z" fill="#ED8036"/><path d="M2.58334-2.26776 136.009 149.725 130.842 154.261-2.58334 2.26776ZM140.735 139.477 148.544 169.215 120.069 157.62Z" fill="#ED8036" transform="matrix(1 0 0 -1 652.5 1150.72)"/><path d="M1.92883-2.84535 151.352 98.4472 147.495 104.138-1.92883 2.84535ZM153.345 87.3393 168.392 114.151 137.914 110.102Z" fill="#ED8036" transform="matrix(1 0 0 -1 394.5 1354.65)"/><path d="M1287 589.5C1287 554.43 1315.65 526 1351 526 1386.35 526 1415 554.43 1415 589.5 1415 624.57 1386.35 653 1351 653 1315.65 653 1287 624.57 1287 589.5Z" stroke="#ED7D31" stroke-width="2.29167" stroke-miterlimit="8" fill="#F8CBAD" fill-rule="evenodd"/><text font-family="Malgun Gothic,Malgun Gothic_MSFontService,sans-serif" font-weight="400" font-size="64" transform="matrix(1 0 0 1 1333.06 614)">2</text><path d="M1399.82 633.598 1456.53 842.164 1449.89 843.967 1393.18 635.402ZM1465.28 835.035 1459.22 865.179 1438.74 842.25Z" fill="#ED8036"/><path d="M494 1503.5C494 1468.43 522.43 1440 557.5 1440 592.57 1440 621 1468.43 621 1503.5 621 1538.57 592.57 1567 557.5 1567 522.43 1567 494 1538.57 494 1503.5Z" stroke="#ED7D31" stroke-width="2.29167" stroke-miterlimit="8" fill="#F8CBAD" fill-rule="evenodd"/><text font-family="Malgun Gothic,Malgun Gothic_MSFontService,sans-serif" font-weight="400" font-size="64" transform="matrix(1 0 0 1 539.766 1528)">8</text><path d="M3.31397-0.913231 46.9506 157.437 40.3227 159.264-3.31397 0.913231ZM55.6749 150.279 49.7248 180.444 29.1631 157.585Z" fill="#ED8036" transform="matrix(1 0 0 -1 558.5 1439.94)"/><text font-family="Arial,Arial_MSFontService,sans-serif" font-weight="400" font-size="92" transform="matrix(1 0 0 1 169.124 379)">1<tspan font-family="Malgun Gothic,Malgun Gothic_MSFontService,sans-serif" font-size="92" x="50.9896" y="0">번</tspan><tspan font-family="Malgun Gothic,Malgun Gothic_MSFontService,sans-serif" font-size="92" x="167.865" y="0">이동</tspan></text><path d="M3816 1469C3816 1435.31 3843.31 1408 3877 1408 3910.69 1408 3938 1435.31 3938 1469 3938 1502.69 3910.69 1530 3877 1530 3843.31 1530 3816 1502.69 3816 1469Z" stroke="#ED7D31" stroke-width="2.29167" stroke-miterlimit="8" fill="#F8CBAD" fill-rule="evenodd"/><text font-family="Malgun Gothic,Malgun Gothic_MSFontService,sans-serif" font-weight="400" font-size="64" transform="matrix(1 0 0 1 3859.52 1494)">9</text><path d="M3478 896C3478 862.311 3505.31 835 3539 835 3572.69 835 3600 862.311 3600 896 3600 929.689 3572.69 957 3539 957 3505.31 957 3478 929.689 3478 896Z" stroke="#ED7D31" stroke-width="2.29167" stroke-miterlimit="8" fill="#F8CBAD" fill-rule="evenodd"/><text font-family="Malgun Gothic,Malgun Gothic_MSFontService,sans-serif" font-weight="400" font-size="64" transform="matrix(1 0 0 1 3521.29 920)">5</text><path d="M3046 1365C3046 1331.31 3073.31 1304 3107 1304 3140.69 1304 3168 1331.31 3168 1365 3168 1398.69 3140.69 1426 3107 1426 3073.31 1426 3046 1398.69 3046 1365Z" stroke="#ED7D31" stroke-width="2.29167" stroke-miterlimit="8" fill="#F8CBAD" fill-rule="evenodd"/><text font-family="Malgun Gothic,Malgun Gothic_MSFontService,sans-serif" font-weight="400" font-size="64" transform="matrix(1 0 0 1 3088.95 1389)">7</text><path d="M3293 1169C3293 1135.31 3320.31 1108 3354 1108 3387.69 1108 3415 1135.31 3415 1169 3415 1202.69 3387.69 1230 3354 1230 3320.31 1230 3293 1202.69 3293 1169Z" stroke="#ED7D31" stroke-width="2.29167" stroke-miterlimit="8" fill="#F8CBAD" fill-rule="evenodd"/><text font-family="Malgun Gothic,Malgun Gothic_MSFontService,sans-serif" font-weight="400" font-size="64" transform="matrix(1 0 0 1 3336.55 1193)">6</text><path d="M3232 567C3232 533.311 3259.31 506 3293 506 3326.69 506 3354 533.311 3354 567 3354 600.689 3326.69 628 3293 628 3259.31 628 3232 600.689 3232 567Z" stroke="#ED7D31" stroke-width="2.29167" stroke-miterlimit="8" fill="#F8CBAD" fill-rule="evenodd"/><text font-family="Malgun Gothic,Malgun Gothic_MSFontService,sans-serif" font-weight="400" font-size="64" transform="matrix(1 0 0 1 3257.78 591)">11</text><path d="M3816 1172C3816 1138.31 3843.31 1111 3877 1111 3910.69 1111 3938 1138.31 3938 1172 3938 1205.69 3910.69 1233 3877 1233 3843.31 1233 3816 1205.69 3816 1172Z" stroke="#ED7D31" stroke-width="2.29167" stroke-miterlimit="8" fill="#F8CBAD" fill-rule="evenodd"/><text font-family="Malgun Gothic,Malgun Gothic_MSFontService,sans-serif" font-weight="400" font-size="64" transform="matrix(1 0 0 1 3859.52 1196)">4</text><path d="M4109 914C4109 880.31 4136.31 853 4170 853 4203.69 853 4231 880.31 4231 914 4231 947.689 4203.69 975 4170 975 4136.31 975 4109 947.689 4109 914Z" stroke="#ED7D31" stroke-width="2.29167" stroke-miterlimit="8" fill="#F8CBAD" fill-rule="evenodd"/><text font-family="Malgun Gothic,Malgun Gothic_MSFontService,sans-serif" font-weight="400" font-size="64" transform="matrix(1 0 0 1 4152.09 938)">3</text><path d="M3004 567C3004 533.311 3031.31 506 3065 506 3098.69 506 3126 533.311 3126 567 3126 600.689 3098.69 628 3065 628 3031.31 628 3004 600.689 3004 567Z" stroke="#ED7D31" stroke-width="2.29167" stroke-miterlimit="8" fill="#F8CBAD" fill-rule="evenodd"/><text font-family="Malgun Gothic,Malgun Gothic_MSFontService,sans-serif" font-weight="400" font-size="64" transform="matrix(1 0 0 1 3029.1 591)">10</text><path d="M3622 585C3622 551.31 3649.31 524 3683 524 3716.69 524 3744 551.31 3744 585 3744 618.689 3716.69 646 3683 646 3649.31 646 3622 618.689 3622 585Z" stroke="#ED7D31" stroke-width="2.29167" stroke-miterlimit="8" fill="#F8CBAD" fill-rule="evenodd"/><text font-family="Malgun Gothic,Malgun Gothic_MSFontService,sans-serif" font-weight="400" font-size="64" transform="matrix(1 0 0 1 3665.62 609)">1</text><path d="M8.7127e-06-3.4375 119.469-3.4372 119.469 3.4378-8.7127e-06 3.4375ZM114.886-13.7497 142.386 0.000360892 114.886 13.7503Z" fill="#ED8036" transform="matrix(-1 0 0 1 3250.89 610.5)"/><path d="M3108.5 521.063 3227.97 521.063 3227.97 527.938 3108.5 527.938ZM3223.39 510.75 3250.89 524.5 3223.39 538.25Z" fill="#ED8036"/><path d="M2.19885-2.64224 190.87 154.368 186.473 159.653-2.19885 2.64224ZM193.944 143.51 206.286 171.67 176.353 164.648Z" fill="#ED8036" transform="matrix(-1 0 0 1 4126.79 957.5)"/><path d="M3.4375-7.05622e-06 3.43781 152.895-3.43719 152.895-3.4375 7.05622e-06ZM13.7503 148.312 0.000360892 175.812-13.7497 148.312Z" fill="#ED8036" transform="matrix(1 0 0 -1 3877.5 1409.31)"/><path d="M3832.38 1131.79 3598.75 956.024 3602.88 950.53 3836.51 1126.29ZM3596.21 967.02 3582.5 939.5 3612.74 945.044Z" fill="#ED8036"/><path d="M3.32837-0.859276 55.644 201.783 48.9873 203.502-3.32837 0.859276ZM64.4834 194.768 58.0441 224.832 37.8564 201.642Z" fill="#ED8036" transform="matrix(1 0 0 -1 3582.5 853.331)"/><path d="M3744.55 582.063 3982.86 585.573 3982.75 592.447 3744.45 588.937ZM3978.42 575.194 4005.72 589.347 3978.02 602.691Z" fill="#ED8036"/><path d="M3.04163-1.60153 90.8151 165.098 84.7319 168.301-3.04163 1.60153ZM97.8046 156.238 98.4504 186.977 73.4716 169.05Z" fill="#ED8036" transform="matrix(1 0 0 -1 3397.5 1126.48)"/><path d="M1.92883-2.84535 144.275 93.6498 140.417 99.3405-1.92883 2.84535ZM146.268 82.5419 161.315 109.354 130.837 105.305Z" fill="#ED8036" transform="matrix(1 0 0 -1 3150.5 1321.85)"/><path d="M4006 588C4006 554.311 4033.31 527 4067 527 4100.69 527 4128 554.311 4128 588 4128 621.689 4100.69 649 4067 649 4033.31 649 4006 621.689 4006 588Z" stroke="#ED7D31" stroke-width="2.29167" stroke-miterlimit="8" fill="#F8CBAD" fill-rule="evenodd"/><text font-family="Malgun Gothic,Malgun Gothic_MSFontService,sans-serif" font-weight="400" font-size="64" transform="matrix(1 0 0 1 4048.86 613)">2</text><path d="M4113.82 631.598 4167.89 830.469 4161.26 832.272 4107.18 633.402ZM4176.64 823.34 4170.59 853.484 4150.1 830.555Z" fill="#ED8036"/><path d="M3246 1464C3246 1430.31 3273.31 1403 3307 1403 3340.69 1403 3368 1430.31 3368 1464 3368 1497.69 3340.69 1525 3307 1525 3273.31 1525 3246 1497.69 3246 1464Z" stroke="#ED7D31" stroke-width="2.29167" stroke-miterlimit="8" fill="#F8CBAD" fill-rule="evenodd"/><text font-family="Malgun Gothic,Malgun Gothic_MSFontService,sans-serif" font-weight="400" font-size="64" transform="matrix(1 0 0 1 3288.92 1488)">8</text><path d="M3.31397-0.913228 44.8607 149.854 38.2327 151.68-3.31397 0.913228ZM53.585 142.696 47.6349 172.86 27.0732 150.001Z" fill="#ED8036" transform="matrix(1 0 0 -1 3307.5 1403.36)"/><path d="M1181.3 0 1192.08 17.6634 1180.69 17.6634C1166.38 225.783 906.445 389.657 590.649 389.657 906.445 389.657 1166.38 225.783 1180.69 17.6634L1169.3 17.6634Z" fill="#4472C4" fill-rule="evenodd" transform="matrix(0.663835 -0.747879 -0.747879 -0.663835 3255.65 1402.85)"/><path d="M590.65 389.657C264.443 389.657-7.59225e-14 215.202-7.59225e-14 0L0 0C0 215.202 264.443 389.657 590.65 389.657Z" fill="#375C9E" fill-rule="evenodd" transform="matrix(0.663835 -0.747879 -0.747879 -0.663835 3255.65 1402.85)"/><path d="M590.65 389.657C906.446 389.657 1166.38 225.782 1180.69 17.6631L1169.3 17.6634 1181.3 0 1192.08 17.6634 1180.69 17.6634C1166.38 225.783 906.445 389.657 590.649 389.657L590.65 389.657C264.443 389.657-7.59225e-14 215.202-7.59225e-14 0L0 0C0 215.202 264.443 389.657 590.65 389.657" stroke="#4472C4" stroke-width="4.58333" stroke-miterlimit="8" fill="none" fill-rule="evenodd" transform="matrix(0.663835 -0.747879 -0.747879 -0.663835 3255.65 1402.85)"/><path d="M4147.65 621.523 4167.83 616.452 4165.73 626.209C4325.24 674.708 4411.41 890.647 4362.29 1118.81 4411.41 890.647 4325.24 674.708 4165.73 626.209L4163.63 635.967Z" fill="#4472C4" fill-rule="evenodd"/><path d="M4362.29 1118.81C4311.05 1356.9 4131.86 1520.29 3962.06 1483.74L3962.06 1483.74C4131.86 1520.29 4311.05 1356.9 4362.29 1118.81Z" fill="#375C9E" fill-rule="evenodd"/><path d="M4362.29 1118.81C4411.41 890.647 4325.24 674.708 4165.73 626.209L4163.63 635.967 4147.65 621.523 4167.83 616.452 4165.73 626.209C4325.24 674.708 4411.41 890.647 4362.29 1118.81L4362.29 1118.81C4311.05 1356.9 4131.86 1520.29 3962.06 1483.74L3962.06 1483.74C4131.86 1520.29 4311.05 1356.9 4362.29 1118.81" stroke="#4472C4" stroke-width="4.58333" stroke-miterlimit="8" fill="none" fill-rule="evenodd"/><path d="M1219 0 1227.61 13.8449 1218.47 13.8449C1204.8 191.014 936.198 330.824 609.501 330.824 936.198 330.824 1204.8 191.014 1218.47 13.8449L1209.32 13.8449Z" fill="#4472C4" fill-rule="evenodd" transform="matrix(0.739239 -0.673443 -0.673443 -0.739239 3136.69 1301.23)"/><path d="M609.501 330.824C272.883 330.824-7.81797e-14 182.709-7.81797e-14 1.9545e-14L0 0C0 182.709 272.883 330.824 609.501 330.824Z" fill="#375C9E" fill-rule="evenodd" transform="matrix(0.739239 -0.673443 -0.673443 -0.739239 3136.69 1301.23)"/><path d="M609.501 330.824C936.198 330.824 1204.8 191.014 1218.47 13.845L1209.32 13.8449 1219 0 1227.61 13.8449 1218.47 13.8449C1204.8 191.014 936.198 330.824 609.501 330.824L609.501 330.824C272.883 330.824-7.81797e-14 182.709-7.81797e-14 1.9545e-14L0 0C0 182.709 272.883 330.824 609.501 330.824" stroke="#4472C4" stroke-width="4.58333" stroke-miterlimit="8" fill="none" fill-rule="evenodd" transform="matrix(0.739239 -0.673443 -0.673443 -0.739239 3136.69 1301.23)"/><path d="M2.23294-0.515489 40.3169 164.452 35.851 165.483-2.23294 0.515489ZM50.4506 157.409 43.2389 187.297 23.6554 163.595Z" fill="#4472C4" transform="matrix(-1 0 0 1 3689.74 685.5)"/><path d="M3996.02 640.402 3784.36 635.339 3784.47 630.757 3996.13 635.82ZM3788.66 646.904 3761.5 632.5 3789.32 619.411Z" fill="#4472C4"/><path d="M4112.1 834.644 4074.25 694.223 4078.68 693.031 4116.52 833.451ZM4064.38 701.631 4070.5 671.5 4090.93 694.474Z" fill="#4472C4"/><path d="M1.49841-1.73393 157.195 132.815 154.198 136.283-1.49841 1.73393ZM161.219 121.148 173.036 149.533 143.238 141.955Z" fill="#4472C4" transform="matrix(1 0 0 -1 3919.5 1057.03)"/><path d="M3632.89 928.68 3821.28 1072.91 3818.49 1076.55 3630.11 932.32ZM3824.61 1061.03 3838.08 1088.66 3807.89 1082.86Z" fill="#4472C4"/><path d="M0.124814 2.28827-6.75019 2.66326-6.50492 2.63659-13.3799 3.76159-13.1557 3.71326-19.9057 5.52576-19.6842 5.45403-26.2467 7.95403-26.0788 7.88231-32.3913 10.8823-32.2078 10.7847-38.3328 14.4097-38.1776 14.3092-43.9276 18.3717-43.767 18.2471-49.142 22.8096-49.0148 22.6931-54.0148 27.6306-53.8748 27.4793-58.3123 32.7293-58.192 32.574-62.1295 38.1365-62.0182 37.9632-65.3932 43.7757-65.2836 43.5618-67.9711 49.5618-67.8755 49.3098-69.813 55.4973-69.7528 55.2619-71.0028 61.5119-70.9638 61.221-71.4013 67.5334-71.3999 67.2391-71.0249 73.5516-71.0571 73.2815-69.9321 79.5315-69.9883 79.2933-68.1758 85.4808-68.2596 85.2436-65.7596 91.2436-65.8386 91.0739-62.8386 96.8864-62.955 96.6863-59.33 102.249-59.4376 102.098-55.3751 107.348-55.5044 107.195-50.9419 112.132-51.0697 112.004-46.1322 116.567-46.285 116.438-41.035 120.5-41.1863 120.393-35.6238 124.018-35.8239 123.901-30.0114 126.901-30.1811 126.822-24.1811 129.322-24.4183 129.238-18.2308 131.051-18.469 130.995-12.219 132.12-12.4891 132.087-6.1766 132.462-6.47095 132.464-0.158449 132.026-0.449431 132.065 5.80057 130.815 5.56519 130.876 11.7527 128.938 11.5007 129.034 17.5007 126.346 17.2868 126.456 23.0993 123.081 22.926 123.192 28.4885 119.255 28.3332 119.375 33.5832 114.937 33.4319 115.077 38.3694 110.077 38.2529 110.204 42.8154 104.829 42.6908 104.99 46.7533 99.2401 46.6528 99.3953 50.2778 93.2703 50.1802 93.4538 53.1802 87.1413 53.0113 87.6353 54.0371 82.9457 58.5145 83.9251 57.4326 88.8714 54.2751 95.5152 50.55 101.809 46.3754 107.718 41.6913 113.236 36.6206 118.371 31.2168 122.939 25.4899 126.993 19.4841 130.48 13.2511 133.272 6.81872 135.286 0.305192 136.589-6.30118 137.046-12.8969 136.655-19.4016 135.484-25.8276 133.601-32.0303 131.017-38.0291 127.921-43.7665 124.182-49.1692 120.001-54.2467 115.309-58.9386 110.232-63.1193 104.829-66.8583 99.0916-69.9544 93.0928-72.5388 86.8901-74.4212 80.4641-75.5921 73.9594-75.9839 67.3637-75.526 60.7573-74.2233 54.2438-72.2091 47.8114-69.4173 41.5784-65.93 35.5726-61.8762 29.8457-57.3086 24.4419-52.1738 19.3712-46.6555 14.687-40.7468 10.5125-34.4527 6.78735-27.9637 3.70348-21.2069 1.12947-14.2334-0.743043-7.12316-1.90654-0.124814-2.28827ZM41.8753 85.0769 61.0139 61.0139 68.7811 90.7626Z" fill="#4472C4" transform="matrix(1.83697e-16 1 1 -1.83697e-16 3293.5 506.5)"/><path d="M0.124814 2.28827-6.75019 2.66326-6.50492 2.63659-13.3799 3.76159-13.1557 3.71326-19.9057 5.52576-19.6842 5.45403-26.2467 7.95403-26.0788 7.88231-32.3913 10.8823-32.2078 10.7847-38.3328 14.4097-38.1776 14.3092-43.9276 18.3717-43.767 18.2471-49.142 22.8096-49.0148 22.6931-54.0148 27.6306-53.8748 27.4793-58.3123 32.7293-58.192 32.574-62.1295 38.1365-62.0182 37.9632-65.3932 43.7757-65.2836 43.5618-67.9711 49.5618-67.8755 49.3098-69.813 55.4973-69.7528 55.2619-71.0028 61.5119-70.9638 61.221-71.4013 67.5334-71.3999 67.2391-71.0249 73.5516-71.0571 73.2815-69.9321 79.5315-69.9883 79.2933-68.1758 85.4808-68.2596 85.2436-65.7596 91.2436-65.8386 91.0739-62.8386 96.8864-62.955 96.6863-59.33 102.249-59.4376 102.098-55.3751 107.348-55.5044 107.195-50.9419 112.132-51.0697 112.004-46.1322 116.567-46.285 116.438-41.035 120.5-41.1863 120.393-35.6238 124.018-35.8239 123.901-30.0114 126.901-30.1811 126.822-24.1811 129.322-24.4183 129.238-18.2308 131.051-18.469 130.995-12.219 132.12-12.4891 132.087-6.1766 132.462-6.47095 132.464-0.158449 132.026-0.449431 132.065 5.80057 130.815 5.56519 130.876 11.7527 128.938 11.5007 129.034 17.5007 126.346 17.2868 126.456 23.0993 123.081 22.926 123.192 28.4885 119.255 28.3332 119.375 33.5832 114.937 33.4319 115.077 38.3694 110.077 38.2529 110.204 42.8154 104.829 42.6908 104.99 46.7533 99.2401 46.6528 99.3953 50.2778 93.2703 50.1802 93.4538 53.1802 87.1413 53.0113 87.6353 54.0371 82.9457 58.5145 83.9251 57.4326 88.8714 54.2751 95.5152 50.55 101.809 46.3754 107.718 41.6913 113.236 36.6206 118.371 31.2168 122.939 25.4899 126.993 19.4841 130.48 13.2511 133.272 6.81872 135.286 0.305192 136.589-6.30118 137.046-12.8969 136.655-19.4016 135.484-25.8276 133.601-32.0303 131.017-38.0291 127.921-43.7665 124.182-49.1692 120.001-54.2467 115.309-58.9386 110.232-63.1193 104.829-66.8583 99.0916-69.9544 93.0928-72.5388 86.8901-74.4212 80.4641-75.5921 73.9594-75.9839 67.3637-75.526 60.7573-74.2233 54.2438-72.2091 47.8114-69.4173 41.5784-65.93 35.5726-61.8762 29.8457-57.3086 24.4419-52.1738 19.3712-46.6555 14.687-40.7468 10.5125-34.4527 6.78735-27.9637 3.70348-21.2069 1.12947-14.2334-0.743043-7.12316-1.90654-0.124814-2.28827ZM41.8753 85.0769 61.0139 61.0139 68.7811 90.7626Z" fill="#4472C4" transform="matrix(1 -1.22465e-16 -1.22465e-16 -1 3004.5 567.514)"/><text font-family="Arial,Arial_MSFontService,sans-serif" font-weight="400" font-size="92" transform="matrix(1 0 0 1 2935.98 391)">4<tspan font-family="Malgun Gothic,Malgun Gothic_MSFontService,sans-serif" font-size="92" x="50.9895" y="0">번</tspan><tspan font-family="Malgun Gothic,Malgun Gothic_MSFontService,sans-serif" font-size="92" x="167.865" y="0">이동</tspan></text><path d="M4229.73 966.065 4241.38 977.748 4233.87 980.356C4264.18 1109.88 4115.37 1270.89 3894.4 1347.67 4115.37 1270.89 4264.18 1109.88 4233.87 980.356L4226.37 982.965Z" fill="#4472C4" fill-rule="evenodd"/><path d="M3894.4 1347.67C3663.82 1427.79 3440.09 1386.83 3394.7 1256.2L3394.7 1256.2C3440.09 1386.83 3663.82 1427.79 3894.4 1347.67Z" fill="#375C9E" fill-rule="evenodd"/><path d="M3894.4 1347.67C4115.37 1270.89 4264.18 1109.88 4233.87 980.357L4226.37 982.965 4229.73 966.065 4241.38 977.748 4233.87 980.356C4264.18 1109.88 4115.37 1270.89 3894.4 1347.67L3894.4 1347.67C3663.82 1427.79 3440.09 1386.83 3394.7 1256.2L3394.7 1256.2C3440.09 1386.83 3663.82 1427.79 3894.4 1347.67" stroke="#4472C4" stroke-width="4.58333" stroke-miterlimit="8" fill="none" fill-rule="evenodd"/><path d="M2486 1493.5C2486 1458.98 2513.98 1431 2548.5 1431 2583.02 1431 2611 1458.98 2611 1493.5 2611 1528.02 2583.02 1556 2548.5 1556 2513.98 1556 2486 1528.02 2486 1493.5Z" stroke="#ED7D31" stroke-width="2.29167" stroke-miterlimit="8" fill="#F8CBAD" fill-rule="evenodd"/><text font-family="Malgun Gothic,Malgun Gothic_MSFontService,sans-serif" font-weight="400" font-size="64" transform="matrix(1 0 0 1 2530.77 1518)">9</text><path d="M2139 905C2139 870.206 2166.98 842 2201.5 842 2236.02 842 2264 870.206 2264 905 2264 939.794 2236.02 968 2201.5 968 2166.98 968 2139 939.794 2139 905Z" stroke="#ED7D31" stroke-width="2.29167" stroke-miterlimit="8" fill="#F8CBAD" fill-rule="evenodd"/><text font-family="Malgun Gothic,Malgun Gothic_MSFontService,sans-serif" font-weight="400" font-size="64" transform="matrix(1 0 0 1 2183.76 929)">5</text><path d="M1695 1386C1695 1351.21 1723.21 1323 1758 1323 1792.79 1323 1821 1351.21 1821 1386 1821 1420.79 1792.79 1449 1758 1449 1723.21 1449 1695 1420.79 1695 1386Z" stroke="#ED7D31" stroke-width="2.29167" stroke-miterlimit="8" fill="#F8CBAD" fill-rule="evenodd"/><text font-family="Malgun Gothic,Malgun Gothic_MSFontService,sans-serif" font-weight="400" font-size="64" transform="matrix(1 0 0 1 1740.22 1410)">7</text><path d="M1949 1185.5C1949 1150.98 1977.21 1123 2012 1123 2046.79 1123 2075 1150.98 2075 1185.5 2075 1220.02 2046.79 1248 2012 1248 1977.21 1248 1949 1220.02 1949 1185.5Z" stroke="#ED7D31" stroke-width="2.29167" stroke-miterlimit="8" fill="#F8CBAD" fill-rule="evenodd"/><text font-family="Malgun Gothic,Malgun Gothic_MSFontService,sans-serif" font-weight="400" font-size="64" transform="matrix(1 0 0 1 1994.24 1210)">6</text><path d="M1887 567.5C1887 532.982 1914.98 505 1949.5 505 1984.02 505 2012 532.982 2012 567.5 2012 602.018 1984.02 630 1949.5 630 1914.98 630 1887 602.018 1887 567.5Z" stroke="#ED7D31" stroke-width="2.29167" stroke-miterlimit="8" fill="#F8CBAD" fill-rule="evenodd"/><text font-family="Malgun Gothic,Malgun Gothic_MSFontService,sans-serif" font-weight="400" font-size="64" transform="matrix(1 0 0 1 1913.88 592)">11</text><path d="M2486 1187.5C2486 1152.98 2513.98 1125 2548.5 1125 2583.02 1125 2611 1152.98 2611 1187.5 2611 1222.02 2583.02 1250 2548.5 1250 2513.98 1250 2486 1222.02 2486 1187.5Z" stroke="#ED7D31" stroke-width="2.29167" stroke-miterlimit="8" fill="#F8CBAD" fill-rule="evenodd"/><text font-family="Malgun Gothic,Malgun Gothic_MSFontService,sans-serif" font-weight="400" font-size="64" transform="matrix(1 0 0 1 2530.77 1212)">4</text><path d="M2786 923.5C2786 888.982 2813.98 861 2848.5 861 2883.02 861 2911 888.982 2911 923.5 2911 958.018 2883.02 986 2848.5 986 2813.98 986 2786 958.018 2786 923.5Z" stroke="#ED7D31" stroke-width="2.29167" stroke-miterlimit="8" fill="#F8CBAD" fill-rule="evenodd"/><text font-family="Malgun Gothic,Malgun Gothic_MSFontService,sans-serif" font-weight="400" font-size="64" transform="matrix(1 0 0 1 2830.92 948)">3</text><path d="M1652 567.5C1652 532.982 1679.98 505 1714.5 505 1749.02 505 1777 532.982 1777 567.5 1777 602.018 1749.02 630 1714.5 630 1679.98 630 1652 602.018 1652 567.5Z" stroke="#ED7D31" stroke-width="2.29167" stroke-miterlimit="8" fill="#F8CBAD" fill-rule="evenodd"/><text font-family="Malgun Gothic,Malgun Gothic_MSFontService,sans-serif" font-weight="400" font-size="64" transform="matrix(1 0 0 1 1679.28 592)">10</text><path d="M2287 585.5C2287 550.982 2314.98 523 2349.5 523 2384.02 523 2412 550.982 2412 585.5 2412 620.018 2384.02 648 2349.5 648 2314.98 648 2287 620.018 2287 585.5Z" stroke="#ED7D31" stroke-width="2.29167" stroke-miterlimit="8" fill="#F8CBAD" fill-rule="evenodd"/><text font-family="Malgun Gothic,Malgun Gothic_MSFontService,sans-serif" font-weight="400" font-size="64" transform="matrix(1 0 0 1 2331.84 610)">1</text><path d="M8.49254e-06-3.4375 123.161-3.4372 123.161 3.4378-8.49254e-06 3.4375ZM118.577-13.7497 146.077 0.000360892 118.577 13.7503Z" fill="#ED8036" transform="matrix(-1 0 0 1 1905.58 612.5)"/><path d="M1759.5 520.063 1882.66 520.063 1882.66 526.938 1759.5 526.938ZM1878.08 509.75 1905.58 523.5 1878.08 537.25Z" fill="#ED8036"/><path d="M2.19885-2.64225 196.218 158.819 191.821 164.103-2.19885 2.64225ZM199.292 147.96 211.635 176.12 181.701 169.098Z" fill="#ED8036" transform="matrix(-1 0 0 1 2805.13 968.5)"/><path d="M3.4375-6.8779e-06 3.43781 157.453-3.43718 157.453-3.4375 6.8779e-06ZM13.7503 152.87 0.000360892 180.37-13.7497 152.87Z" fill="#ED8036" transform="matrix(1 0 0 -1 2549.5 1430.87)"/><path d="M2502.91 1146.7 2262.75 966.024 2266.88 960.53 2507.05 1141.21ZM2260.21 977.02 2246.5 949.5 2276.74 955.044Z" fill="#ED8036"/><path d="M3.32837-0.859278 57.1489 207.612 50.4922 209.331-3.32837 0.859278ZM65.9883 200.596 59.549 230.66 39.3614 207.471Z" fill="#ED8036" transform="matrix(1 0 0 -1 2246.5 861.16)"/><path d="M2412.55 583.063 2657.63 586.672 2657.53 593.547 2412.45 589.937ZM2653.2 576.294 2680.49 590.447 2652.79 603.791Z" fill="#ED8036"/><path d="M3.04163-1.60153 93.3677 169.945 87.2845 173.148-3.04163 1.60153ZM100.357 161.085 101.003 191.824 76.0242 173.898Z" fill="#ED8036" transform="matrix(1 0 0 -1 2056.5 1141.32)"/><path d="M1.92884-2.84535 148.457 96.4849 144.599 102.176-1.92884 2.84535ZM150.45 85.3771 165.497 112.189 135.019 108.14Z" fill="#ED8036" transform="matrix(1 0 0 -1 1802.5 1342.69)"/><path d="M2680 589.5C2680 554.982 2707.98 527 2742.5 527 2777.02 527 2805 554.982 2805 589.5 2805 624.018 2777.02 652 2742.5 652 2707.98 652 2680 624.018 2680 589.5Z" stroke="#ED7D31" stroke-width="2.29167" stroke-miterlimit="8" fill="#F8CBAD" fill-rule="evenodd"/><text font-family="Malgun Gothic,Malgun Gothic_MSFontService,sans-serif" font-weight="400" font-size="64" transform="matrix(1 0 0 1 2725.02 614)">2</text><path d="M2790.82 633.598 2846.45 838.198 2839.81 840.002 2784.18 635.402ZM2855.2 831.069 2849.14 861.213 2828.66 838.284Z" fill="#ED8036"/><path d="M1901 1487.5C1901 1452.98 1928.98 1425 1963.5 1425 1998.02 1425 2026 1452.98 2026 1487.5 2026 1522.02 1998.02 1550 1963.5 1550 1928.98 1550 1901 1522.02 1901 1487.5Z" stroke="#ED7D31" stroke-width="2.29167" stroke-miterlimit="8" fill="#F8CBAD" fill-rule="evenodd"/><text font-family="Malgun Gothic,Malgun Gothic_MSFontService,sans-serif" font-weight="400" font-size="64" transform="matrix(1 0 0 1 1945.37 1512)">8</text><path d="M3.31397-0.91323 46.0957 154.335 39.4677 156.162-3.31397 0.91323ZM54.8199 147.177 48.8699 177.341 28.3082 154.483Z" fill="#ED8036" transform="matrix(1 0 0 -1 1963.5 1425.84)"/><path d="M605.326 0 616.968 39.0115 602.234 39.0115C580.778 173.663 453.149 273.611 302.663 273.611 453.149 273.611 580.778 173.663 602.234 39.0115L587.5 39.0115Z" fill="#4472C4" fill-rule="evenodd" transform="matrix(0.663835 -0.747879 -0.747879 -0.663835 1727.31 1318.09)"/><path d="M302.663 273.611C135.507 273.611 0 151.111 0-3.9471e-14L0 0C0 151.111 135.507 273.611 302.663 273.611Z" fill="#375C9E" fill-rule="evenodd" transform="matrix(0.663835 -0.747879 -0.747879 -0.663835 1727.31 1318.09)"/><path d="M302.663 273.611C453.149 273.611 580.778 173.662 602.234 39.0114L587.5 39.0115 605.326 0 616.968 39.0115 602.234 39.0115C580.778 173.663 453.149 273.611 302.663 273.611L302.663 273.611C135.507 273.611 0 151.111 0-3.9471e-14L0 0C0 151.111 135.507 273.611 302.663 273.611" stroke="#4472C4" stroke-width="4.58333" stroke-miterlimit="8" fill="none" fill-rule="evenodd" transform="matrix(0.663835 -0.747879 -0.747879 -0.663835 1727.31 1318.09)"/><path d="M584.072 0 595.938 19.3164 581.088 19.3164C560.385 85.9879 437.238 135.477 292.035 135.477 437.238 135.477 560.385 85.9879 581.088 19.3164L566.238 19.3164Z" fill="#4472C4" fill-rule="evenodd" transform="matrix(-0.432661 -0.901557 -0.901557 0.432661 2464.75 1519.6)"/><path d="M292.036 135.476C130.749 135.476 0 74.8216 0 9.53138e-15L0 0C0 74.8216 130.749 135.476 292.036 135.476Z" fill="#375C9E" fill-rule="evenodd" transform="matrix(-0.432661 -0.901557 -0.901557 0.432661 2464.75 1519.6)"/><path d="M292.036 135.476C437.238 135.476 560.385 85.9877 581.088 19.3162L566.238 19.3164 584.072 0 595.938 19.3164 581.088 19.3164C560.385 85.9879 437.238 135.477 292.035 135.477L292.036 135.476C130.749 135.476 0 74.8216 0 9.53138e-15L0 0C0 74.8216 130.749 135.476 292.036 135.476" stroke="#4472C4" stroke-width="4.58333" stroke-miterlimit="8" fill="none" fill-rule="evenodd" transform="matrix(-0.432661 -0.901557 -0.901557 0.432661 2464.75 1519.6)"/><path d="M513.387 0 526.172 40.796 510.764 40.796C492.567 181.606 384.323 286.127 256.693 286.127 384.323 286.127 492.567 181.606 510.764 40.796L495.357 40.796Z" fill="#4472C4" fill-rule="evenodd" transform="matrix(0.39107 -0.920361 -0.920361 -0.39107 1922.41 1396.06)"/><path d="M256.693 286.126C114.926 286.126-3.36613e-14 158.023-3.36613e-14 0L0 0C0 158.023 114.926 286.126 256.693 286.126Z" fill="#375C9E" fill-rule="evenodd" transform="matrix(0.39107 -0.920361 -0.920361 -0.39107 1922.41 1396.06)"/><path d="M256.693 286.126C384.323 286.126 492.567 181.606 510.764 40.7958L495.357 40.796 513.387 0 526.172 40.796 510.764 40.796C492.567 181.606 384.323 286.127 256.693 286.127L256.693 286.126C114.926 286.126-3.36613e-14 158.023-3.36613e-14 0L0 0C0 158.023 114.926 286.126 256.693 286.126" stroke="#4472C4" stroke-width="4.58333" stroke-miterlimit="8" fill="none" fill-rule="evenodd" transform="matrix(0.39107 -0.920361 -0.920361 -0.39107 1922.41 1396.06)"/><path d="M590.94 0 598.337 27.5799 587.921 27.5799C566.975 122.774 442.379 193.435 295.47 193.435 442.379 193.435 566.975 122.774 587.921 27.5799L577.504 27.5799Z" fill="#4472C4" fill-rule="evenodd" transform="matrix(0.529196 -0.848499 -0.848499 -0.529196 1956.94 1102.86)"/><path d="M295.47 193.435C132.286 193.435-3.82803e-14 106.831 0 0L0 0C-3.82803e-14 106.831 132.286 193.435 295.47 193.435Z" fill="#375C9E" fill-rule="evenodd" transform="matrix(0.529196 -0.848499 -0.848499 -0.529196 1956.94 1102.86)"/><path d="M295.47 193.435C442.38 193.435 566.975 122.774 587.921 27.58L577.504 27.5799 590.94 0 598.337 27.5799 587.921 27.5799C566.975 122.774 442.379 193.435 295.47 193.435L295.47 193.435C132.286 193.435-3.82803e-14 106.831 0 0L0 0C-3.82803e-14 106.831 132.286 193.435 295.47 193.435" stroke="#4472C4" stroke-width="4.58333" stroke-miterlimit="8" fill="none" fill-rule="evenodd" transform="matrix(0.529196 -0.848499 -0.848499 -0.529196 1956.94 1102.86)"/><path d="M2408.71 650.555 2757.52 867.796 2755.1 871.687 2406.29 654.445ZM2759.69 855.647 2775.76 881.857 2745.15 878.99Z" fill="#4472C4"/><path d="M2.14056-0.818388 162.528 418.686 158.247 420.323-2.14056 0.818388ZM171.594 410.314 168.571 440.911 145.907 420.135Z" fill="#4472C4" transform="matrix(-1 0 0 1 2718.07 662.5)"/><path d="M0.00297826-2.29166 454.719-1.70071 454.713 2.88262-0.00297826 2.29166ZM450.151-13.165 477.633 0.620735 450.115 14.335Z" fill="#4472C4" transform="matrix(-1 0 0 1 2759.13 923.5)"/><path d="M2520.92 1098.26 2371.2 687.814 2375.51 686.244 2525.23 1096.69ZM2362.01 696.047 2365.5 665.5 2387.84 686.623Z" fill="#4472C4"/><path d="M1.10898-2.00547 390.033 213.061 387.815 217.072-1.10898 2.00547ZM391.567 200.816 408.979 226.156 378.259 224.882Z" fill="#4472C4" transform="matrix(1 0 0 -1 2277.5 881.656)"/><path d="M0.12151 2.28844-6.94099 2.66344-6.68251 2.63494-13.745 3.82244-13.522 3.77342-20.397 5.64842-20.2041 5.58651-26.9541 8.08651-26.757 8.00287-33.257 11.1279-33.0855 11.0362-39.3355 14.7237-39.1792 14.6228-45.1167 18.8103-44.951 18.6817-50.451 23.3692-50.3372 23.2653-55.4622 28.2653-55.307 28.098-59.8695 33.5355-59.7505 33.3808-63.7505 39.0683-63.6366 38.8892-67.0741 44.8892-66.9684 44.6807-69.7184 50.8682-69.6342 50.6492-71.6967 56.9617-71.6262 56.6909-72.8762 63.0659-72.8385 62.7789-73.276 69.2789-73.2746 68.993-72.8996 75.493-72.9346 75.2053-71.7471 81.5803-71.8032 81.3475-69.9282 87.66-70.0002 87.454-67.5002 93.6415-67.5925 93.4414-64.4675 99.4414-64.5771 99.2533-60.8896 104.941-60.9968 104.789-56.8093 110.227-56.9427 110.069-52.3177 115.069-52.443 114.943-47.3805 119.631-47.5291 119.505-42.1541 123.692-42.3254 123.571-36.5754 127.258-36.7452 127.16-30.8077 130.285-31.0165 130.188-24.829 132.688-25.035 132.616-18.7225 134.491-18.9553 134.435-12.5803 135.622-12.868 135.587-6.36801 135.962-6.6539 135.964-0.1539 135.526-0.440948 135.564 5.93405 134.314 5.66326 134.384 11.9758 132.322 11.7568 132.406 17.9443 129.656 17.7358 129.762 23.7358 126.324 23.5567 126.438 29.2442 122.438 29.0777 122.567 34.5152 117.942 34.3695 118.077 39.3695 113.015 39.2476 113.148 43.9351 107.586 43.8214 107.732 48.0089 101.857 47.9013 102.023 51.5888 95.773 51.4934 95.9522 54.6184 89.3897 54.456 89.8535 55.7042 84.5121 60.1673 85.5551 58.8628 91.1371 55.5879 98.0145 51.7985 104.437 47.4997 110.468 42.6941 116.171 37.5606 121.369 31.967 126.126 26.1064 130.248 19.9127 133.797 13.5109 136.642 6.9535 138.784 0.298615 140.089-6.489 140.546-13.2769 140.154-19.9126 138.918-26.4447 136.978-32.8404 134.394-38.9669 131.17-44.888 127.372-50.4229 123.06-55.6221 118.246-60.3775 113.105-64.6848 107.512-68.4822 101.655-71.7085 95.4608-74.2907 89.0697-76.231 82.5376-77.467 75.9019-77.8586 69.114-77.4018 62.3264-76.0969 55.6715-73.9544 49.1141-71.1091 42.7123-67.5606 36.5186-63.4433 30.6643-58.7446 25.0644-53.4827 19.9308-47.8441 15.1252-41.7447 10.8236-35.3307 7.0393-28.6464 3.8257-21.7008 1.25327-14.6177-0.678491-7.31406-1.90654-0.12151-2.28844ZM43.541 86.7252 62.5957 62.5957 70.4665 92.3171Z" fill="#4472C4" transform="matrix(1.83697e-16 1 1 -1.83697e-16 1949.5 505.5)"/><path d="M0.12151 2.28844-6.94099 2.66344-6.68251 2.63494-13.745 3.82244-13.522 3.77342-20.397 5.64842-20.2041 5.58651-26.9541 8.08651-26.757 8.00287-33.257 11.1279-33.0855 11.0362-39.3355 14.7237-39.1792 14.6228-45.1167 18.8103-44.951 18.6817-50.451 23.3692-50.3372 23.2653-55.4622 28.2653-55.307 28.098-59.8695 33.5355-59.7505 33.3808-63.7505 39.0683-63.6366 38.8892-67.0741 44.8892-66.9684 44.6807-69.7184 50.8682-69.6342 50.6492-71.6967 56.9617-71.6262 56.6909-72.8762 63.0659-72.8385 62.7789-73.276 69.2789-73.2746 68.993-72.8996 75.493-72.9346 75.2053-71.7471 81.5803-71.8032 81.3475-69.9282 87.66-70.0002 87.454-67.5002 93.6415-67.5925 93.4414-64.4675 99.4414-64.5771 99.2533-60.8896 104.941-60.9968 104.789-56.8093 110.227-56.9427 110.069-52.3177 115.069-52.443 114.943-47.3805 119.631-47.5291 119.505-42.1541 123.692-42.3254 123.571-36.5754 127.258-36.7452 127.16-30.8077 130.285-31.0165 130.188-24.829 132.688-25.035 132.616-18.7225 134.491-18.9553 134.435-12.5803 135.622-12.868 135.587-6.36801 135.962-6.6539 135.964-0.1539 135.526-0.440948 135.564 5.93405 134.314 5.66326 134.384 11.9758 132.322 11.7568 132.406 17.9443 129.656 17.7358 129.762 23.7358 126.324 23.5567 126.438 29.2442 122.438 29.0777 122.567 34.5152 117.942 34.3695 118.077 39.3695 113.015 39.2476 113.148 43.9351 107.586 43.8214 107.732 48.0089 101.857 47.9013 102.023 51.5888 95.773 51.4934 95.9522 54.6184 89.3897 54.456 89.8535 55.7042 84.5121 60.1673 85.5551 58.8628 91.1371 55.5879 98.0145 51.7985 104.437 47.4997 110.468 42.6941 116.171 37.5606 121.369 31.967 126.126 26.1064 130.248 19.9127 133.797 13.5109 136.642 6.9535 138.784 0.298615 140.089-6.489 140.546-13.2769 140.154-19.9126 138.918-26.4447 136.978-32.8404 134.394-38.9669 131.17-44.888 127.372-50.4229 123.06-55.6221 118.246-60.3775 113.105-64.6848 107.512-68.4822 101.655-71.7085 95.4608-74.2907 89.0697-76.231 82.5376-77.467 75.9019-77.8586 69.114-77.4018 62.3264-76.0969 55.6715-73.9544 49.1141-71.1091 42.7123-67.5606 36.5186-63.4433 30.6643-58.7446 25.0644-53.4827 19.9308-47.8441 15.1252-41.7447 10.8236-35.3307 7.0393-28.6464 3.8257-21.7008 1.25327-14.6177-0.678491-7.31406-1.90654-0.12151-2.28844ZM43.541 86.7252 62.5957 62.5957 70.4665 92.3171Z" fill="#4472C4" transform="matrix(1 -1.22465e-16 -1.22465e-16 -1 1652.5 568.096)"/><text font-family="Arial,Arial_MSFontService,sans-serif" font-weight="400" font-size="92" transform="matrix(1 0 0 1 1581.97 385)">2<tspan font-family="Malgun Gothic,Malgun Gothic_MSFontService,sans-serif" font-size="92" x="50.9896" y="0">번</tspan><tspan font-family="Malgun Gothic,Malgun Gothic_MSFontService,sans-serif" font-size="92" x="167.865" y="0">이동</tspan></text></g></svg>