<svg width="1518" height="1321" xmlns="http://www.w3.org/2000/svg" xmlns:xlink="http://www.w3.org/1999/xlink" overflow="hidden"><defs><clipPath id="clip0"><rect x="1492" y="689" width="1518" height="1321"/></clipPath></defs><g clip-path="url(#clip0)" transform="translate(-1492 -689)"><rect x="1492" y="689" width="1518" height="1321" fill="#7F7F7F" fill-opacity="0.4"/><rect x="1492" y="689" width="1518" height="1321" fill="#FFFFFF" fill-opacity="0.74902"/><path d="M2494 1868.5C2494 1830.67 2524.44 1800 2562 1800 2599.56 1800 2630 1830.67 2630 1868.5 2630 1906.33 2599.56 1937 2562 1937 2524.44 1937 2494 1906.33 2494 1868.5Z" stroke="#ED7D31" stroke-width="2.29167" stroke-miterlimit="8" fill="#F8CBAD" fill-rule="evenodd"/><text font-family="Malgun Gothic,Malgun Gothic_MSFontService,sans-serif" font-weight="400" font-size="64" transform="matrix(1 0 0 1 2544.18 1893)">9</text><path d="M2115 1226.5C2115 1188.67 2145.67 1158 2183.5 1158 2221.33 1158 2252 1188.67 2252 1226.5 2252 1264.33 2221.33 1295 2183.5 1295 2145.67 1295 2115 1264.33 2115 1226.5Z" stroke="#ED7D31" stroke-width="2.29167" stroke-miterlimit="8" fill="#F8CBAD" fill-rule="evenodd"/><text font-family="Malgun Gothic,Malgun Gothic_MSFontService,sans-serif" font-weight="400" font-size="64" transform="matrix(1 0 0 1 2165.62 1251)">5</text><path d="M1631 1751.5C1631 1713.67 1661.67 1683 1699.5 1683 1737.33 1683 1768 1713.67 1768 1751.5 1768 1789.33 1737.33 1820 1699.5 1820 1661.67 1820 1631 1789.33 1631 1751.5Z" stroke="#ED7D31" stroke-width="2.29167" stroke-miterlimit="8" fill="#F8CBAD" fill-rule="evenodd"/><text font-family="Malgun Gothic,Malgun Gothic_MSFontService,sans-serif" font-weight="400" font-size="64" transform="matrix(1 0 0 1 1681.73 1776)">7</text><path d="M1908 1532.5C1908 1494.67 1938.67 1464 1976.5 1464 2014.33 1464 2045 1494.67 2045 1532.5 2045 1570.33 2014.33 1601 1976.5 1601 1938.67 1601 1908 1570.33 1908 1532.5Z" stroke="#ED7D31" stroke-width="2.29167" stroke-miterlimit="8" fill="#F8CBAD" fill-rule="evenodd"/><text font-family="Malgun Gothic,Malgun Gothic_MSFontService,sans-serif" font-weight="400" font-size="64" transform="matrix(1 0 0 1 1958.85 1557)">6</text><path d="M1840 858.5C1840 820.668 1870.67 790 1908.5 790 1946.33 790 1977 820.668 1977 858.5 1977 896.332 1946.33 927 1908.5 927 1870.67 927 1840 896.332 1840 858.5Z" stroke="#ED7D31" stroke-width="2.29167" stroke-miterlimit="8" fill="#F8CBAD" fill-rule="evenodd"/><text font-family="Malgun Gothic,Malgun Gothic_MSFontService,sans-serif" font-weight="400" font-size="64" transform="matrix(1 0 0 1 1872.8 883)">11</text><path d="M2494 1535.5C2494 1497.67 2524.44 1467 2562 1467 2599.56 1467 2630 1497.67 2630 1535.5 2630 1573.33 2599.56 1604 2562 1604 2524.44 1604 2494 1573.33 2494 1535.5Z" stroke="#ED7D31" stroke-width="2.29167" stroke-miterlimit="8" fill="#F8CBAD" fill-rule="evenodd"/><text font-family="Malgun Gothic,Malgun Gothic_MSFontService,sans-serif" font-weight="400" font-size="64" transform="matrix(1 0 0 1 2544.18 1560)">4</text><path d="M2821 1246.5C2821 1208.67 2851.67 1178 2889.5 1178 2927.33 1178 2958 1208.67 2958 1246.5 2958 1284.33 2927.33 1315 2889.5 1315 2851.67 1315 2821 1284.33 2821 1246.5Z" stroke="#ED7D31" stroke-width="2.29167" stroke-miterlimit="8" fill="#F8CBAD" fill-rule="evenodd"/><text font-family="Malgun Gothic,Malgun Gothic_MSFontService,sans-serif" font-weight="400" font-size="64" transform="matrix(1 0 0 1 2871.64 1271)">3</text><path d="M1584 858.5C1584 820.668 1614.67 790 1652.5 790 1690.33 790 1721 820.668 1721 858.5 1721 896.332 1690.33 927 1652.5 927 1614.67 927 1584 896.332 1584 858.5Z" stroke="#ED7D31" stroke-width="2.29167" stroke-miterlimit="8" fill="#F8CBAD" fill-rule="evenodd"/><text font-family="Malgun Gothic,Malgun Gothic_MSFontService,sans-serif" font-weight="400" font-size="64" transform="matrix(1 0 0 1 1616.87 883)">10</text><path d="M2277 878.5C2277 840.668 2307.44 810 2345 810 2382.56 810 2413 840.668 2413 878.5 2413 916.331 2382.56 947 2345 947 2307.44 947 2277 916.331 2277 878.5Z" stroke="#ED7D31" stroke-width="2.29167" stroke-miterlimit="8" fill="#F8CBAD" fill-rule="evenodd"/><text font-family="Malgun Gothic,Malgun Gothic_MSFontService,sans-serif" font-weight="400" font-size="64" transform="matrix(1 0 0 1 2327.16 903)">1</text><path d="M7.78453e-06-3.4375 136.447-3.43719 136.447 3.43781-7.78453e-06 3.4375ZM131.863-13.7497 159.363 0.000360892 131.863 13.7503Z" fill="#ED8036" transform="matrix(-1 0 0 1 1860.86 907.5)"/><path d="M1701.5 807.063 1837.95 807.063 1837.95 813.938 1701.5 813.938ZM1833.36 796.75 1860.86 810.5 1833.36 824.25Z" fill="#ED8036"/><path d="M2.19885-2.64225 215.467 174.837 211.069 180.122-2.19885 2.64225ZM218.54 163.979 230.883 192.138 200.949 185.117Z" fill="#ED8036" transform="matrix(-1 0 0 1 2841.38 1295.5)"/><path d="M3.4375-6.3045e-06 3.43782 173.858-3.43718 173.858-3.4375 6.3045e-06ZM13.7503 169.275 0.000360892 196.775-13.7497 169.275Z" fill="#ED8036" transform="matrix(1 0 0 -1 2562.5 1801.27)"/><path d="M2512.42 1490.39 2248.75 1292.02 2252.88 1286.53 2516.55 1484.89ZM2246.21 1303.02 2232.5 1275.5 2262.74 1281.04Z" fill="#ED8036"/><path d="M3.32837-0.859276 62.5648 228.591 55.9081 230.309-3.32837 0.859276ZM71.4042 221.575 64.965 251.639 44.7773 228.449Z" fill="#ED8036" transform="matrix(1 0 0 -1 2232.5 1179.14)"/><path d="M2413.55 875.063 2683 879.032 2682.9 885.906 2413.45 881.937ZM2678.57 868.653 2705.86 882.806 2678.17 896.15Z" fill="#ED8036"/><path d="M3.04163-1.60153 102.554 187.392 96.4706 190.595-3.04163 1.60153ZM109.543 178.532 110.189 209.271 85.2103 191.344Z" fill="#ED8036" transform="matrix(1 0 0 -1 2025.5 1484.77)"/><path d="M1.92883-2.84535 163.509 106.688 159.652 112.379-1.92883 2.84535ZM165.502 95.5806 180.549 122.393 150.071 118.343Z" fill="#ED8036" transform="matrix(1 0 0 -1 1748.5 1703.89)"/><path d="M2706 882.5C2706 844.669 2736.44 814 2774 814 2811.56 814 2842 844.669 2842 882.5 2842 920.332 2811.56 951 2774 951 2736.44 951 2706 920.332 2706 882.5Z" stroke="#ED7D31" stroke-width="2.29167" stroke-miterlimit="8" fill="#F8CBAD" fill-rule="evenodd"/><text font-family="Malgun Gothic,Malgun Gothic_MSFontService,sans-serif" font-weight="400" font-size="64" transform="matrix(1 0 0 1 2756.1 907)">2</text><path d="M2825.82 930.598 2887.05 1155.82 2880.42 1157.62 2819.18 932.402ZM2895.8 1148.69 2889.75 1178.83 2869.27 1155.9Z" fill="#ED8036"/><path d="M1855 1862.5C1855 1824.67 1885.67 1794 1923.5 1794 1961.33 1794 1992 1824.67 1992 1862.5 1992 1900.33 1961.33 1931 1923.5 1931 1885.67 1931 1855 1900.33 1855 1862.5Z" stroke="#ED7D31" stroke-width="2.29167" stroke-miterlimit="8" fill="#F8CBAD" fill-rule="evenodd"/><text font-family="Malgun Gothic,Malgun Gothic_MSFontService,sans-serif" font-weight="400" font-size="64" transform="matrix(1 0 0 1 1905.54 1887)">8</text><path d="M3.31397-0.91323 50.5404 170.464 43.9124 172.291-3.31397 0.91323ZM59.2647 163.306 53.3146 193.471 32.7529 170.612Z" fill="#ED8036" transform="matrix(1 0 0 -1 1923.5 1794.97)"/></g></svg>