<svg width="4350" height="1371" xmlns="http://www.w3.org/2000/svg" xmlns:xlink="http://www.w3.org/1999/xlink" overflow="hidden"><defs><clipPath id="clip0"><rect x="80" y="415" width="4350" height="1371"/></clipPath></defs><g clip-path="url(#clip0)" transform="translate(-80 -415)"><rect x="93.9998" y="415" width="4336" height="1371" fill="#404040"/><path d="M1056 1678C1056 1642.65 1084.65 1614 1120 1614 1155.35 1614 1184 1642.65 1184 1678 1184 1713.35 1155.35 1742 1120 1742 1084.65 1742 1056 1713.35 1056 1678Z" stroke="#ED7D31" stroke-width="2.29167" stroke-miterlimit="8" fill="#F8CBAD" fill-rule="evenodd"/><text font-family="Malgun Gothic,Malgun Gothic_MSFontService,sans-serif" font-weight="400" font-size="64" transform="matrix(1 0 0 1 1102.27 1703)">9</text><path d="M749 1105C749 1069.65 777.43 1041 812.5 1041 847.57 1041 876 1069.65 876 1105 876 1140.35 847.57 1169 812.5 1169 777.43 1169 749 1140.35 749 1105Z" stroke="#ED7D31" stroke-width="2.29167" stroke-miterlimit="8" fill="#F8CBAD" fill-rule="evenodd"/><text font-family="Malgun Gothic,Malgun Gothic_MSFontService,sans-serif" font-weight="400" font-size="64" transform="matrix(1 0 0 1 794.971 1130)">5</text><path d="M252 1568.5C252 1533.43 280.43 1505 315.5 1505 350.57 1505 379 1533.43 379 1568.5 379 1603.57 350.57 1632 315.5 1632 280.43 1632 252 1603.57 252 1568.5Z" stroke="#ED7D31" stroke-width="2.29167" stroke-miterlimit="8" fill="#F8CBAD" fill-rule="evenodd"/><text font-family="Malgun Gothic,Malgun Gothic_MSFontService,sans-serif" font-weight="400" font-size="64" transform="matrix(1 0 0 1 297.89 1593)">7</text><path d="M510 1364.5C510 1329.43 538.654 1301 574 1301 609.346 1301 638 1329.43 638 1364.5 638 1399.57 609.346 1428 574 1428 538.654 1428 510 1399.57 510 1364.5Z" stroke="#ED7D31" stroke-width="2.29167" stroke-miterlimit="8" fill="#F8CBAD" fill-rule="evenodd"/><text font-family="Malgun Gothic,Malgun Gothic_MSFontService,sans-serif" font-weight="400" font-size="64" transform="matrix(1 0 0 1 556.355 1389)">6</text><path d="M447 735.5C447 700.43 475.43 672 510.5 672 545.57 672 574 700.43 574 735.5 574 770.57 545.57 799 510.5 799 475.43 799 447 770.57 447 735.5Z" stroke="#ED7D31" stroke-width="2.29167" stroke-miterlimit="8" fill="#F8CBAD" fill-rule="evenodd"/><text font-family="Malgun Gothic,Malgun Gothic_MSFontService,sans-serif" font-weight="400" font-size="64" transform="matrix(1 0 0 1 474.904 760)">11</text><path d="M1056 1367C1056 1331.65 1084.65 1303 1120 1303 1155.35 1303 1184 1331.65 1184 1367 1184 1402.35 1155.35 1431 1120 1431 1084.65 1431 1056 1402.35 1056 1367Z" stroke="#ED7D31" stroke-width="2.29167" stroke-miterlimit="8" fill="#F8CBAD" fill-rule="evenodd"/><text font-family="Malgun Gothic,Malgun Gothic_MSFontService,sans-serif" font-weight="400" font-size="64" transform="matrix(1 0 0 1 1102.27 1392)">4</text><path d="M1362 1098C1362 1062.65 1390.43 1034 1425.5 1034 1460.57 1034 1489 1062.65 1489 1098 1489 1133.35 1460.57 1162 1425.5 1162 1390.43 1162 1362 1133.35 1362 1098Z" stroke="#ED7D31" stroke-width="2.29167" stroke-miterlimit="8" fill="#F8CBAD" fill-rule="evenodd"/><text font-family="Malgun Gothic,Malgun Gothic_MSFontService,sans-serif" font-weight="400" font-size="64" transform="matrix(1 0 0 1 1407.68 1122)">3</text><path d="M208 735.5C208 700.43 236.43 672 271.5 672 306.57 672 335 700.43 335 735.5 335 770.57 306.57 799 271.5 799 236.43 799 208 770.57 208 735.5Z" stroke="#ED7D31" stroke-width="2.29167" stroke-miterlimit="8" fill="#F8CBAD" fill-rule="evenodd"/><text font-family="Malgun Gothic,Malgun Gothic_MSFontService,sans-serif" font-weight="400" font-size="64" transform="matrix(1 0 0 1 236.199 760)">10</text><path d="M854 754.5C854 719.43 882.43 691 917.5 691 952.57 691 981 719.43 981 754.5 981 789.57 952.57 818 917.5 818 882.43 818 854 789.57 854 754.5Z" stroke="#ED7D31" stroke-width="2.29167" stroke-miterlimit="8" fill="#F8CBAD" fill-rule="evenodd"/><text font-family="Malgun Gothic,Malgun Gothic_MSFontService,sans-serif" font-weight="400" font-size="64" transform="matrix(1 0 0 1 899.859 779)">1</text><path d="M8.34653e-06-3.4375 125.716-3.43719 125.716 3.43781-8.34653e-06 3.4375ZM121.133-13.7497 148.633 0.000360892 121.133 13.7503Z" fill="#ED8036" transform="matrix(-1 0 0 1 466.133 781.5)"/><path d="M317.5 688.063 443.216 688.063 443.216 694.938 317.5 694.938ZM438.633 677.75 466.133 691.5 438.633 705.25Z" fill="#ED8036"/><path d="M2.19885-2.64224 199.921 161.9 195.523 167.185-2.19885 2.64224ZM202.994 151.041 215.337 179.201 185.403 172.179Z" fill="#ED8036" transform="matrix(-1 0 0 1 1380.84 1143.5)"/><path d="M3.4375-6.75965e-06 3.43782 160.609-3.43718 160.609-3.4375 6.75965e-06ZM13.7503 156.025 0.000360892 183.525-13.7497 156.025Z" fill="#ED8036" transform="matrix(1 0 0 -1 1120.5 1615.03)"/><path d="M1073.59 1325.09 874.338 1167.42 878.604 1162.02 1077.86 1319.7ZM871.533 1178.35 858.5 1150.5 888.597 1156.78Z" fill="#ED8036"/><path d="M3.33696-0.82529 57.6872 218.933 51.0133 220.584-3.33696 0.82529ZM66.5977 212.008 59.8522 242.005 39.902 218.611Z" fill="#ED8036" transform="matrix(1 0 0 -1 813.5 1041.51)"/><path d="M981.55 751.063 1231.32 754.742 1231.21 761.616 981.449 757.937ZM1226.88 744.363 1254.18 758.516 1226.48 771.86Z" fill="#ED8036"/><path d="M2.58334-2.26776 136.009 149.725 130.842 154.261-2.58334 2.26776ZM140.735 139.477 148.544 169.215 120.069 157.62Z" fill="#ED8036" transform="matrix(1 0 0 -1 619.5 1319.72)"/><path d="M1.92883-2.84535 151.352 98.4472 147.495 104.138-1.92883 2.84535ZM153.345 87.3393 168.392 114.151 137.914 110.102Z" fill="#ED8036" transform="matrix(1 0 0 -1 361.5 1523.65)"/><path d="M1254 758.5C1254 723.43 1282.43 695 1317.5 695 1352.57 695 1381 723.43 1381 758.5 1381 793.57 1352.57 822 1317.5 822 1282.43 822 1254 793.57 1254 758.5Z" stroke="#ED7D31" stroke-width="2.29167" stroke-miterlimit="8" fill="#F8CBAD" fill-rule="evenodd"/><text font-family="Malgun Gothic,Malgun Gothic_MSFontService,sans-serif" font-weight="400" font-size="64" transform="matrix(1 0 0 1 1299.92 783)">2</text><path d="M1366.82 802.598 1423.53 1011.16 1416.89 1012.97 1360.18 804.402ZM1432.28 1004.03 1426.22 1034.18 1405.74 1011.25Z" fill="#ED8036"/><path d="M461 1672.5C461 1637.43 489.43 1609 524.5 1609 559.57 1609 588 1637.43 588 1672.5 588 1707.57 559.57 1736 524.5 1736 489.43 1736 461 1707.57 461 1672.5Z" stroke="#ED7D31" stroke-width="2.29167" stroke-miterlimit="8" fill="#F8CBAD" fill-rule="evenodd"/><text font-family="Malgun Gothic,Malgun Gothic_MSFontService,sans-serif" font-weight="400" font-size="64" transform="matrix(1 0 0 1 506.63 1697)">8</text><path d="M3.31397-0.913231 46.9506 157.437 40.3227 159.264-3.31397 0.913231ZM55.6749 150.279 49.7248 180.444 29.1631 157.585Z" fill="#ED8036" transform="matrix(1 0 0 -1 524.5 1608.94)"/><text fill="#BFBFBF" font-family="Arial,Arial_MSFontService,sans-serif" font-weight="400" font-size="92" transform="matrix(1 0 0 1 135.988 548)">1<tspan font-family="Malgun Gothic,Malgun Gothic_MSFontService,sans-serif" font-size="92" x="50.9896" y="0">번</tspan><tspan font-family="Malgun Gothic,Malgun Gothic_MSFontService,sans-serif" font-size="92" x="167.865" y="0">이동</tspan></text><path d="M3783 1638C3783 1604.31 3810.31 1577 3844 1577 3877.69 1577 3905 1604.31 3905 1638 3905 1671.69 3877.69 1699 3844 1699 3810.31 1699 3783 1671.69 3783 1638Z" stroke="#ED7D31" stroke-width="2.29167" stroke-miterlimit="8" fill="#F8CBAD" fill-rule="evenodd"/><text font-family="Malgun Gothic,Malgun Gothic_MSFontService,sans-serif" font-weight="400" font-size="64" transform="matrix(1 0 0 1 3826.38 1663)">9</text><path d="M3445 1065C3445 1031.31 3472.31 1004 3506 1004 3539.69 1004 3567 1031.31 3567 1065 3567 1098.69 3539.69 1126 3506 1126 3472.31 1126 3445 1098.69 3445 1065Z" stroke="#ED7D31" stroke-width="2.29167" stroke-miterlimit="8" fill="#F8CBAD" fill-rule="evenodd"/><text font-family="Malgun Gothic,Malgun Gothic_MSFontService,sans-serif" font-weight="400" font-size="64" transform="matrix(1 0 0 1 3488.15 1089)">5</text><path d="M3013 1534C3013 1500.31 3040.31 1473 3074 1473 3107.69 1473 3135 1500.31 3135 1534 3135 1567.69 3107.69 1595 3074 1595 3040.31 1595 3013 1567.69 3013 1534Z" stroke="#ED7D31" stroke-width="2.29167" stroke-miterlimit="8" fill="#F8CBAD" fill-rule="evenodd"/><text font-family="Malgun Gothic,Malgun Gothic_MSFontService,sans-serif" font-weight="400" font-size="64" transform="matrix(1 0 0 1 3055.81 1558)">7</text><path d="M3260 1338C3260 1304.31 3287.31 1277 3321 1277 3354.69 1277 3382 1304.31 3382 1338 3382 1371.69 3354.69 1399 3321 1399 3287.31 1399 3260 1371.69 3260 1338Z" stroke="#ED7D31" stroke-width="2.29167" stroke-miterlimit="8" fill="#F8CBAD" fill-rule="evenodd"/><text font-family="Malgun Gothic,Malgun Gothic_MSFontService,sans-serif" font-weight="400" font-size="64" transform="matrix(1 0 0 1 3303.41 1363)">6</text><path d="M3199 736C3199 702.311 3226.31 675 3260 675 3293.69 675 3321 702.311 3321 736 3321 769.69 3293.69 797 3260 797 3226.31 797 3199 769.69 3199 736Z" stroke="#ED7D31" stroke-width="2.29167" stroke-miterlimit="8" fill="#F8CBAD" fill-rule="evenodd"/><text font-family="Malgun Gothic,Malgun Gothic_MSFontService,sans-serif" font-weight="400" font-size="64" transform="matrix(1 0 0 1 3224.64 760)">11</text><path d="M3783 1341C3783 1307.31 3810.31 1280 3844 1280 3877.69 1280 3905 1307.31 3905 1341 3905 1374.69 3877.69 1402 3844 1402 3810.31 1402 3783 1374.69 3783 1341Z" stroke="#ED7D31" stroke-width="2.29167" stroke-miterlimit="8" fill="#F8CBAD" fill-rule="evenodd"/><text font-family="Malgun Gothic,Malgun Gothic_MSFontService,sans-serif" font-weight="400" font-size="64" transform="matrix(1 0 0 1 3826.38 1365)">4</text><path d="M4076 1083C4076 1049.31 4103.31 1022 4137 1022 4170.69 1022 4198 1049.31 4198 1083 4198 1116.69 4170.69 1144 4137 1144 4103.31 1144 4076 1116.69 4076 1083Z" stroke="#ED7D31" stroke-width="2.29167" stroke-miterlimit="8" fill="#F8CBAD" fill-rule="evenodd"/><text font-family="Malgun Gothic,Malgun Gothic_MSFontService,sans-serif" font-weight="400" font-size="64" transform="matrix(1 0 0 1 4118.96 1107)">3</text><path d="M2970 736C2970 702.311 2997.53 675 3031.5 675 3065.47 675 3093 702.311 3093 736 3093 769.69 3065.47 797 3031.5 797 2997.53 797 2970 769.69 2970 736Z" stroke="#ED7D31" stroke-width="2.29167" stroke-miterlimit="8" fill="#F8CBAD" fill-rule="evenodd"/><text font-family="Malgun Gothic,Malgun Gothic_MSFontService,sans-serif" font-weight="400" font-size="64" transform="matrix(1 0 0 1 2995.97 760)">10</text><path d="M3589 754C3589 720.311 3616.31 693 3650 693 3683.69 693 3711 720.311 3711 754 3711 787.689 3683.69 815 3650 815 3616.31 815 3589 787.689 3589 754Z" stroke="#ED7D31" stroke-width="2.29167" stroke-miterlimit="8" fill="#F8CBAD" fill-rule="evenodd"/><text font-family="Malgun Gothic,Malgun Gothic_MSFontService,sans-serif" font-weight="400" font-size="64" transform="matrix(1 0 0 1 3632.48 778)">1</text><path d="M8.7127e-06-3.4375 119.469-3.4372 119.469 3.4378-8.7127e-06 3.4375ZM114.886-13.7497 142.386 0.000360892 114.886 13.7503Z" fill="#ED8036" transform="matrix(-1 0 0 1 3217.89 779.5)"/><path d="M3075.5 690.062 3194.97 690.063 3194.97 696.938 3075.5 696.937ZM3190.39 679.75 3217.89 693.5 3190.39 707.25Z" fill="#ED8036"/><path d="M2.19885-2.64224 190.87 154.368 186.473 159.653-2.19885 2.64224ZM193.944 143.51 206.286 171.67 176.353 164.648Z" fill="#ED8036" transform="matrix(-1 0 0 1 4093.79 1126.5)"/><path d="M3.4375-7.05622e-06 3.43781 152.895-3.43719 152.895-3.4375 7.05622e-06ZM13.7503 148.312 0.000360892 175.812-13.7497 148.312Z" fill="#ED8036" transform="matrix(1 0 0 -1 3844.5 1578.31)"/><path d="M3799.38 1300.79 3565.75 1125.02 3569.88 1119.53 3803.51 1295.29ZM3563.21 1136.02 3549.5 1108.5 3579.74 1114.04Z" fill="#ED8036"/><path d="M3.32837-0.859276 55.644 201.783 48.9873 203.502-3.32837 0.859276ZM64.4834 194.768 58.0441 224.832 37.8564 201.642Z" fill="#ED8036" transform="matrix(1 0 0 -1 3549.5 1022.33)"/><path d="M3711.55 751.063 3949.86 754.573 3949.75 761.447 3711.45 757.937ZM3945.42 744.194 3972.72 758.348 3945.02 771.691Z" fill="#ED8036"/><path d="M3.04163-1.60153 90.8151 165.098 84.7319 168.301-3.04163 1.60153ZM97.8046 156.238 98.4504 186.977 73.4716 169.05Z" fill="#ED8036" transform="matrix(1 0 0 -1 3364.5 1295.48)"/><path d="M1.92883-2.84535 144.275 93.6498 140.417 99.3405-1.92883 2.84535ZM146.268 82.5419 161.315 109.354 130.837 105.305Z" fill="#ED8036" transform="matrix(1 0 0 -1 3117.5 1490.85)"/><path d="M3972 758C3972 724.311 3999.53 697 4033.5 697 4067.47 697 4095 724.311 4095 758 4095 791.69 4067.47 819 4033.5 819 3999.53 819 3972 791.69 3972 758Z" stroke="#ED7D31" stroke-width="2.29167" stroke-miterlimit="8" fill="#F8CBAD" fill-rule="evenodd"/><text font-family="Malgun Gothic,Malgun Gothic_MSFontService,sans-serif" font-weight="400" font-size="64" transform="matrix(1 0 0 1 4015.73 782)">2</text><path d="M4080.82 800.598 4134.89 999.469 4128.26 1001.27 4074.18 802.402ZM4143.64 992.34 4137.59 1022.48 4117.1 999.555Z" fill="#ED8036"/><path d="M3213 1633C3213 1599.31 3240.31 1572 3274 1572 3307.69 1572 3335 1599.31 3335 1633 3335 1666.69 3307.69 1694 3274 1694 3240.31 1694 3213 1666.69 3213 1633Z" stroke="#ED7D31" stroke-width="2.29167" stroke-miterlimit="8" fill="#F8CBAD" fill-rule="evenodd"/><text font-family="Malgun Gothic,Malgun Gothic_MSFontService,sans-serif" font-weight="400" font-size="64" transform="matrix(1 0 0 1 3255.78 1657)">8</text><path d="M3.31397-0.913228 44.8607 149.854 38.2327 151.68-3.31397 0.913228ZM53.585 142.696 47.6349 172.86 27.0732 150.001Z" fill="#ED8036" transform="matrix(1 0 0 -1 3274.5 1572.36)"/><path d="M1181.3 0 1192.08 17.6634 1180.69 17.6634C1166.38 225.783 906.445 389.657 590.649 389.657 906.445 389.657 1166.38 225.783 1180.69 17.6634L1169.3 17.6634Z" fill="#4472C4" fill-rule="evenodd" transform="matrix(0.663835 -0.747879 -0.747879 -0.663835 3222.52 1571.93)"/><path d="M590.65 389.657C264.443 389.657-7.59225e-14 215.202-7.59225e-14 0L0 0C0 215.202 264.443 389.657 590.65 389.657Z" fill="#375C9E" fill-rule="evenodd" transform="matrix(0.663835 -0.747879 -0.747879 -0.663835 3222.52 1571.93)"/><path d="M590.65 389.657C906.446 389.657 1166.38 225.782 1180.69 17.6631L1169.3 17.6634 1181.3 0 1192.08 17.6634 1180.69 17.6634C1166.38 225.783 906.445 389.657 590.649 389.657L590.65 389.657C264.443 389.657-7.59225e-14 215.202-7.59225e-14 0L0 0C0 215.202 264.443 389.657 590.65 389.657" stroke="#4472C4" stroke-width="4.58333" stroke-miterlimit="8" fill="none" fill-rule="evenodd" transform="matrix(0.663835 -0.747879 -0.747879 -0.663835 3222.52 1571.93)"/><path d="M4114.51 790.604 4134.69 785.533 4132.59 795.29C4292.1 843.79 4378.27 1059.73 4329.16 1287.89 4378.27 1059.73 4292.1 843.79 4132.59 795.29L4130.49 805.048Z" fill="#4472C4" fill-rule="evenodd"/><path d="M4329.16 1287.89C4277.91 1525.98 4098.72 1689.37 3928.93 1652.82L3928.93 1652.82C4098.72 1689.37 4277.91 1525.98 4329.16 1287.89Z" fill="#375C9E" fill-rule="evenodd"/><path d="M4329.16 1287.89C4378.27 1059.73 4292.1 843.789 4132.59 795.29L4130.49 805.048 4114.51 790.604 4134.69 785.533 4132.59 795.29C4292.1 843.79 4378.27 1059.73 4329.16 1287.89L4329.16 1287.89C4277.91 1525.98 4098.72 1689.37 3928.93 1652.82L3928.93 1652.82C4098.72 1689.37 4277.91 1525.98 4329.16 1287.89" stroke="#4472C4" stroke-width="4.58333" stroke-miterlimit="8" fill="none" fill-rule="evenodd"/><path d="M1219 0 1227.61 13.8449 1218.47 13.8449C1204.8 191.014 936.198 330.824 609.501 330.824 936.198 330.824 1204.8 191.014 1218.47 13.8449L1209.32 13.8449Z" fill="#4472C4" fill-rule="evenodd" transform="matrix(0.739239 -0.673443 -0.673443 -0.739239 3103.56 1470.31)"/><path d="M609.501 330.824C272.883 330.824-7.81797e-14 182.709-7.81797e-14 1.9545e-14L0 0C0 182.709 272.883 330.824 609.501 330.824Z" fill="#375C9E" fill-rule="evenodd" transform="matrix(0.739239 -0.673443 -0.673443 -0.739239 3103.56 1470.31)"/><path d="M609.501 330.824C936.198 330.824 1204.8 191.014 1218.47 13.845L1209.32 13.8449 1219 0 1227.61 13.8449 1218.47 13.8449C1204.8 191.014 936.198 330.824 609.501 330.824L609.501 330.824C272.883 330.824-7.81797e-14 182.709-7.81797e-14 1.9545e-14L0 0C0 182.709 272.883 330.824 609.501 330.824" stroke="#4472C4" stroke-width="4.58333" stroke-miterlimit="8" fill="none" fill-rule="evenodd" transform="matrix(0.739239 -0.673443 -0.673443 -0.739239 3103.56 1470.31)"/><path d="M2.23294-0.515489 40.3169 164.452 35.851 165.483-2.23294 0.515489ZM50.4506 157.409 43.2389 187.297 23.6554 163.595Z" fill="#4472C4" transform="matrix(-1 0 0 1 3656.74 854.5)"/><path d="M3963.02 809.402 3751.36 804.339 3751.47 799.757 3963.13 804.82ZM3755.66 815.904 3728.5 801.5 3756.32 788.412Z" fill="#4472C4"/><path d="M4079.1 1003.64 4041.25 863.224 4045.68 862.031 4083.52 1002.45ZM4031.38 870.631 4037.5 840.5 4057.93 863.474Z" fill="#4472C4"/><path d="M1.49841-1.73393 157.195 132.815 154.198 136.283-1.49841 1.73393ZM161.219 121.148 173.036 149.533 143.238 141.955Z" fill="#4472C4" transform="matrix(1 0 0 -1 3886.5 1226.03)"/><path d="M3599.89 1097.68 3788.28 1241.91 3785.49 1245.55 3597.11 1101.32ZM3791.61 1230.03 3805.08 1257.66 3774.89 1251.86Z" fill="#4472C4"/><path d="M0.124814 2.28827-6.75019 2.66326-6.50492 2.63659-13.3799 3.76159-13.1557 3.71326-19.9057 5.52576-19.6842 5.45403-26.2467 7.95403-26.0788 7.88231-32.3913 10.8823-32.2078 10.7847-38.3328 14.4097-38.1776 14.3092-43.9276 18.3717-43.767 18.2471-49.142 22.8096-49.0148 22.6931-54.0148 27.6306-53.8748 27.4793-58.3123 32.7293-58.192 32.574-62.1295 38.1365-62.0182 37.9632-65.3932 43.7757-65.2836 43.5618-67.9711 49.5618-67.8755 49.3098-69.813 55.4973-69.7528 55.2619-71.0028 61.5119-70.9638 61.221-71.4013 67.5334-71.3999 67.2391-71.0249 73.5516-71.0571 73.2815-69.9321 79.5315-69.9883 79.2933-68.1758 85.4808-68.2596 85.2436-65.7596 91.2436-65.8386 91.0739-62.8386 96.8864-62.955 96.6863-59.33 102.249-59.4376 102.098-55.3751 107.348-55.5044 107.195-50.9419 112.132-51.0697 112.004-46.1322 116.567-46.285 116.438-41.035 120.5-41.1863 120.393-35.6238 124.018-35.8239 123.901-30.0114 126.901-30.1811 126.822-24.1811 129.322-24.4183 129.238-18.2308 131.051-18.469 130.995-12.219 132.12-12.4891 132.087-6.1766 132.462-6.47095 132.464-0.158449 132.026-0.449431 132.065 5.80057 130.815 5.56519 130.876 11.7527 128.938 11.5007 129.034 17.5007 126.346 17.2868 126.456 23.0993 123.081 22.926 123.192 28.4885 119.255 28.3332 119.375 33.5832 114.937 33.4319 115.077 38.3694 110.077 38.2529 110.204 42.8154 104.829 42.6908 104.99 46.7533 99.2401 46.6528 99.3953 50.2778 93.2703 50.1802 93.4538 53.1802 87.1413 53.0113 87.6353 54.0371 82.9457 58.5145 83.9251 57.4326 88.8714 54.2751 95.5152 50.55 101.809 46.3754 107.718 41.6913 113.236 36.6206 118.371 31.2168 122.939 25.4899 126.993 19.4841 130.48 13.2511 133.272 6.81872 135.286 0.305192 136.589-6.30118 137.046-12.8969 136.655-19.4016 135.484-25.8276 133.601-32.0303 131.017-38.0291 127.921-43.7665 124.182-49.1692 120.001-54.2467 115.309-58.9386 110.232-63.1193 104.829-66.8583 99.0916-69.9544 93.0928-72.5388 86.8901-74.4212 80.4641-75.5921 73.9594-75.9839 67.3637-75.526 60.7573-74.2233 54.2438-72.2091 47.8114-69.4173 41.5784-65.93 35.5726-61.8762 29.8457-57.3086 24.4419-52.1738 19.3712-46.6555 14.687-40.7468 10.5125-34.4527 6.78735-27.9637 3.70348-21.2069 1.12947-14.2334-0.743043-7.12316-1.90654-0.124814-2.28827ZM41.8753 85.0769 61.0139 61.0139 68.7811 90.7626Z" fill="#4472C4" transform="matrix(1.83697e-16 1 1 -1.83697e-16 3260.5 675.5)"/><path d="M0.124814 2.28827-6.75019 2.66326-6.50492 2.63659-13.3799 3.76159-13.1557 3.71326-19.9057 5.52576-19.6842 5.45403-26.2467 7.95403-26.0788 7.88231-32.3913 10.8823-32.2078 10.7847-38.3328 14.4097-38.1776 14.3092-43.9276 18.3717-43.767 18.2471-49.142 22.8096-49.0148 22.6931-54.0148 27.6306-53.8748 27.4793-58.3123 32.7293-58.192 32.574-62.1295 38.1365-62.0182 37.9632-65.3932 43.7757-65.2836 43.5618-67.9711 49.5618-67.8755 49.3098-69.813 55.4973-69.7528 55.2619-71.0028 61.5119-70.9638 61.221-71.4013 67.5334-71.3999 67.2391-71.0249 73.5516-71.0571 73.2815-69.9321 79.5315-69.9883 79.2933-68.1758 85.4808-68.2596 85.2436-65.7596 91.2436-65.8386 91.0739-62.8386 96.8864-62.955 96.6863-59.33 102.249-59.4376 102.098-55.3751 107.348-55.5044 107.195-50.9419 112.132-51.0697 112.004-46.1322 116.567-46.285 116.438-41.035 120.5-41.1863 120.393-35.6238 124.018-35.8239 123.901-30.0114 126.901-30.1811 126.822-24.1811 129.322-24.4183 129.238-18.2308 131.051-18.469 130.995-12.219 132.12-12.4891 132.087-6.1766 132.462-6.47095 132.464-0.158449 132.026-0.449431 132.065 5.80057 130.815 5.56519 130.876 11.7527 128.938 11.5007 129.034 17.5007 126.346 17.2868 126.456 23.0993 123.081 22.926 123.192 28.4885 119.255 28.3332 119.375 33.5832 114.937 33.4319 115.077 38.3694 110.077 38.2529 110.204 42.8154 104.829 42.6908 104.99 46.7533 99.2401 46.6528 99.3953 50.2778 93.2703 50.1802 93.4538 53.1802 87.1413 53.0113 87.6353 54.0371 82.9457 58.5145 83.9251 57.4326 88.8714 54.2751 95.5152 50.55 101.809 46.3754 107.718 41.6913 113.236 36.6206 118.371 31.2168 122.939 25.4899 126.993 19.4841 130.48 13.2511 133.272 6.81872 135.286 0.305192 136.589-6.30118 137.046-12.8969 136.655-19.4016 135.484-25.8276 133.601-32.0303 131.017-38.0291 127.921-43.7665 124.182-49.1692 120.001-54.2467 115.309-58.9386 110.232-63.1193 104.829-66.8583 99.0916-69.9544 93.0928-72.5388 86.8901-74.4212 80.4641-75.5921 73.9594-75.9839 67.3637-75.526 60.7573-74.2233 54.2438-72.2091 47.8114-69.4173 41.5784-65.93 35.5726-61.8762 29.8457-57.3086 24.4419-52.1738 19.3712-46.6555 14.687-40.7468 10.5125-34.4527 6.78735-27.9637 3.70348-21.2069 1.12947-14.2334-0.743043-7.12316-1.90654-0.124814-2.28827ZM41.8753 85.0769 61.0139 61.0139 68.7811 90.7626Z" fill="#4472C4" transform="matrix(1 -1.22465e-16 -1.22465e-16 -1 2970.5 736.514)"/><text fill="#BFBFBF" font-family="Arial,Arial_MSFontService,sans-serif" font-weight="400" font-size="92" transform="matrix(1 0 0 1 2902.85 560)">4<tspan font-family="Malgun Gothic,Malgun Gothic_MSFontService,sans-serif" font-size="92" x="50.9898" y="0">번</tspan><tspan font-family="Malgun Gothic,Malgun Gothic_MSFontService,sans-serif" font-size="92" x="167.865" y="0">이동</tspan></text><path d="M4196.6 1135.15 4208.25 1146.83 4200.74 1149.44C4231.04 1278.96 4082.23 1439.98 3861.27 1516.75 4082.23 1439.98 4231.04 1278.96 4200.74 1149.44L4193.23 1152.05Z" fill="#4472C4" fill-rule="evenodd"/><path d="M3861.27 1516.75C3630.68 1596.87 3406.96 1555.92 3361.57 1425.28L3361.57 1425.28C3406.96 1555.92 3630.68 1596.87 3861.27 1516.75Z" fill="#375C9E" fill-rule="evenodd"/><path d="M3861.27 1516.75C4082.23 1439.98 4231.05 1278.96 4200.74 1149.44L4193.23 1152.05 4196.6 1135.15 4208.25 1146.83 4200.74 1149.44C4231.04 1278.96 4082.23 1439.98 3861.27 1516.75L3861.27 1516.75C3630.68 1596.87 3406.96 1555.92 3361.57 1425.28L3361.57 1425.28C3406.96 1555.92 3630.68 1596.87 3861.27 1516.75" stroke="#4472C4" stroke-width="4.58333" stroke-miterlimit="8" fill="none" fill-rule="evenodd"/><path d="M2453 1662.5C2453 1627.98 2480.98 1600 2515.5 1600 2550.02 1600 2578 1627.98 2578 1662.5 2578 1697.02 2550.02 1725 2515.5 1725 2480.98 1725 2453 1697.02 2453 1662.5Z" stroke="#ED7D31" stroke-width="2.29167" stroke-miterlimit="8" fill="#F8CBAD" fill-rule="evenodd"/><text font-family="Malgun Gothic,Malgun Gothic_MSFontService,sans-serif" font-weight="400" font-size="64" transform="matrix(1 0 0 1 2497.63 1687)">9</text><path d="M2106 1074C2106 1039.21 2133.98 1011 2168.5 1011 2203.02 1011 2231 1039.21 2231 1074 2231 1108.79 2203.02 1137 2168.5 1137 2133.98 1137 2106 1108.79 2106 1074Z" stroke="#ED7D31" stroke-width="2.29167" stroke-miterlimit="8" fill="#F8CBAD" fill-rule="evenodd"/><text font-family="Malgun Gothic,Malgun Gothic_MSFontService,sans-serif" font-weight="400" font-size="64" transform="matrix(1 0 0 1 2150.63 1098)">5</text><path d="M1662 1555C1662 1520.21 1689.98 1492 1724.5 1492 1759.02 1492 1787 1520.21 1787 1555 1787 1589.79 1759.02 1618 1724.5 1618 1689.98 1618 1662 1589.79 1662 1555Z" stroke="#ED7D31" stroke-width="2.29167" stroke-miterlimit="8" fill="#F8CBAD" fill-rule="evenodd"/><text font-family="Malgun Gothic,Malgun Gothic_MSFontService,sans-serif" font-weight="400" font-size="64" transform="matrix(1 0 0 1 1707.08 1580)">7</text><path d="M1916 1354.5C1916 1319.98 1943.98 1292 1978.5 1292 2013.02 1292 2041 1319.98 2041 1354.5 2041 1389.02 2013.02 1417 1978.5 1417 1943.98 1417 1916 1389.02 1916 1354.5Z" stroke="#ED7D31" stroke-width="2.29167" stroke-miterlimit="8" fill="#F8CBAD" fill-rule="evenodd"/><text font-family="Malgun Gothic,Malgun Gothic_MSFontService,sans-serif" font-weight="400" font-size="64" transform="matrix(1 0 0 1 1961.1 1379)">6</text><path d="M1854 736.5C1854 701.982 1881.98 674 1916.5 674 1951.02 674 1979 701.982 1979 736.5 1979 771.018 1951.02 799 1916.5 799 1881.98 799 1854 771.018 1854 736.5Z" stroke="#ED7D31" stroke-width="2.29167" stroke-miterlimit="8" fill="#F8CBAD" fill-rule="evenodd"/><text font-family="Malgun Gothic,Malgun Gothic_MSFontService,sans-serif" font-weight="400" font-size="64" transform="matrix(1 0 0 1 1880.75 761)">11</text><path d="M2453 1357C2453 1322.21 2480.98 1294 2515.5 1294 2550.02 1294 2578 1322.21 2578 1357 2578 1391.79 2550.02 1420 2515.5 1420 2480.98 1420 2453 1391.79 2453 1357Z" stroke="#ED7D31" stroke-width="2.29167" stroke-miterlimit="8" fill="#F8CBAD" fill-rule="evenodd"/><text font-family="Malgun Gothic,Malgun Gothic_MSFontService,sans-serif" font-weight="400" font-size="64" transform="matrix(1 0 0 1 2497.63 1381)">4</text><path d="M2753 1092.5C2753 1057.98 2780.98 1030 2815.5 1030 2850.02 1030 2878 1057.98 2878 1092.5 2878 1127.02 2850.02 1155 2815.5 1155 2780.98 1155 2753 1127.02 2753 1092.5Z" stroke="#ED7D31" stroke-width="2.29167" stroke-miterlimit="8" fill="#F8CBAD" fill-rule="evenodd"/><text font-family="Malgun Gothic,Malgun Gothic_MSFontService,sans-serif" font-weight="400" font-size="64" transform="matrix(1 0 0 1 2797.79 1117)">3</text><path d="M1619 736.5C1619 701.982 1646.98 674 1681.5 674 1716.02 674 1744 701.982 1744 736.5 1744 771.018 1716.02 799 1681.5 799 1646.98 799 1619 771.018 1619 736.5Z" stroke="#ED7D31" stroke-width="2.29167" stroke-miterlimit="8" fill="#F8CBAD" fill-rule="evenodd"/><text font-family="Malgun Gothic,Malgun Gothic_MSFontService,sans-serif" font-weight="400" font-size="64" transform="matrix(1 0 0 1 1646.14 761)">10</text><path d="M2254 754.5C2254 719.982 2281.98 692 2316.5 692 2351.02 692 2379 719.982 2379 754.5 2379 789.018 2351.02 817 2316.5 817 2281.98 817 2254 789.018 2254 754.5Z" stroke="#ED7D31" stroke-width="2.29167" stroke-miterlimit="8" fill="#F8CBAD" fill-rule="evenodd"/><text font-family="Malgun Gothic,Malgun Gothic_MSFontService,sans-serif" font-weight="400" font-size="64" transform="matrix(1 0 0 1 2298.7 779)">1</text><path d="M8.49254e-06-3.4375 123.161-3.4372 123.161 3.4378-8.49254e-06 3.4375ZM118.577-13.7497 146.077 0.000360892 118.577 13.7503Z" fill="#ED8036" transform="matrix(-1 0 0 1 1872.58 781.5)"/><path d="M1726.5 689.063 1849.66 689.063 1849.66 695.938 1726.5 695.938ZM1845.08 678.75 1872.58 692.501 1845.08 706.25Z" fill="#ED8036"/><path d="M2.19885-2.64225 196.218 158.819 191.821 164.103-2.19885 2.64225ZM199.292 147.96 211.635 176.12 181.701 169.098Z" fill="#ED8036" transform="matrix(-1 0 0 1 2772.13 1137.5)"/><path d="M3.4375-6.8779e-06 3.43781 157.453-3.43718 157.453-3.4375 6.8779e-06ZM13.7503 152.87 0.000360892 180.37-13.7497 152.87Z" fill="#ED8036" transform="matrix(1 0 0 -1 2515.5 1600.87)"/><path d="M2469.91 1315.7 2229.75 1135.02 2233.88 1129.53 2474.05 1310.21ZM2227.21 1146.02 2213.5 1118.5 2243.74 1124.04Z" fill="#ED8036"/><path d="M3.32837-0.859278 57.1489 207.612 50.4922 209.331-3.32837 0.859278ZM65.9883 200.596 59.549 230.66 39.3614 207.471Z" fill="#ED8036" transform="matrix(1 0 0 -1 2213.5 1030.16)"/><path d="M2379.55 752.063 2624.63 755.673 2624.53 762.547 2379.45 758.937ZM2620.2 745.294 2647.49 759.447 2619.79 772.791Z" fill="#ED8036"/><path d="M3.04163-1.60153 93.3677 169.945 87.2845 173.148-3.04163 1.60153ZM100.357 161.085 101.003 191.824 76.0242 173.898Z" fill="#ED8036" transform="matrix(1 0 0 -1 2023.5 1310.32)"/><path d="M1.92884-2.84535 148.457 96.4849 144.599 102.176-1.92884 2.84535ZM150.45 85.3771 165.497 112.189 135.019 108.14Z" fill="#ED8036" transform="matrix(1 0 0 -1 1769.5 1511.69)"/><path d="M2647 758.5C2647 723.982 2674.98 696 2709.5 696 2744.02 696 2772 723.982 2772 758.5 2772 793.018 2744.02 821 2709.5 821 2674.98 821 2647 793.018 2647 758.5Z" stroke="#ED7D31" stroke-width="2.29167" stroke-miterlimit="8" fill="#F8CBAD" fill-rule="evenodd"/><text font-family="Malgun Gothic,Malgun Gothic_MSFontService,sans-serif" font-weight="400" font-size="64" transform="matrix(1 0 0 1 2691.88 783)">2</text><path d="M2757.82 802.598 2813.45 1007.2 2806.81 1009 2751.18 804.402ZM2822.2 1000.07 2816.14 1030.21 2795.66 1007.28Z" fill="#ED8036"/><path d="M1867 1656.5C1867 1621.98 1895.21 1594 1930 1594 1964.79 1594 1993 1621.98 1993 1656.5 1993 1691.02 1964.79 1719 1930 1719 1895.21 1719 1867 1691.02 1867 1656.5Z" stroke="#ED7D31" stroke-width="2.29167" stroke-miterlimit="8" fill="#F8CBAD" fill-rule="evenodd"/><text font-family="Malgun Gothic,Malgun Gothic_MSFontService,sans-serif" font-weight="400" font-size="64" transform="matrix(1 0 0 1 1912.23 1681)">8</text><path d="M3.31397-0.91323 46.0957 154.335 39.4677 156.162-3.31397 0.91323ZM54.8199 147.177 48.8699 177.341 28.3082 154.483Z" fill="#ED8036" transform="matrix(1 0 0 -1 1930.5 1594.84)"/><path d="M605.326 0 616.968 39.0115 602.234 39.0115C580.778 173.663 453.149 273.611 302.663 273.611 453.149 273.611 580.778 173.663 602.234 39.0115L587.5 39.0115Z" fill="#4472C4" fill-rule="evenodd" transform="matrix(0.663835 -0.747879 -0.747879 -0.663835 1694.17 1487.17)"/><path d="M302.663 273.611C135.507 273.611 0 151.111 0-3.9471e-14L0 0C0 151.111 135.507 273.611 302.663 273.611Z" fill="#375C9E" fill-rule="evenodd" transform="matrix(0.663835 -0.747879 -0.747879 -0.663835 1694.17 1487.17)"/><path d="M302.663 273.611C453.149 273.611 580.778 173.662 602.234 39.0114L587.5 39.0115 605.326 0 616.968 39.0115 602.234 39.0115C580.778 173.663 453.149 273.611 302.663 273.611L302.663 273.611C135.507 273.611 0 151.111 0-3.9471e-14L0 0C0 151.111 135.507 273.611 302.663 273.611" stroke="#4472C4" stroke-width="4.58333" stroke-miterlimit="8" fill="none" fill-rule="evenodd" transform="matrix(0.663835 -0.747879 -0.747879 -0.663835 1694.17 1487.17)"/><path d="M584.072 0 595.938 19.3164 581.088 19.3164C560.385 85.9879 437.238 135.477 292.035 135.477 437.238 135.477 560.385 85.9879 581.088 19.3164L566.238 19.3164Z" fill="#4472C4" fill-rule="evenodd" transform="matrix(-0.432661 -0.901557 -0.901557 0.432661 2431.61 1688.68)"/><path d="M292.036 135.476C130.749 135.476 0 74.8216 0 9.53138e-15L0 0C0 74.8216 130.749 135.476 292.036 135.476Z" fill="#375C9E" fill-rule="evenodd" transform="matrix(-0.432661 -0.901557 -0.901557 0.432661 2431.61 1688.68)"/><path d="M292.036 135.476C437.238 135.476 560.385 85.9877 581.088 19.3162L566.238 19.3164 584.072 0 595.938 19.3164 581.088 19.3164C560.385 85.9879 437.238 135.477 292.035 135.477L292.036 135.476C130.749 135.476 0 74.8216 0 9.53138e-15L0 0C0 74.8216 130.749 135.476 292.036 135.476" stroke="#4472C4" stroke-width="4.58333" stroke-miterlimit="8" fill="none" fill-rule="evenodd" transform="matrix(-0.432661 -0.901557 -0.901557 0.432661 2431.61 1688.68)"/><path d="M513.387 0 526.172 40.796 510.764 40.796C492.567 181.606 384.323 286.127 256.693 286.127 384.323 286.127 492.567 181.606 510.764 40.796L495.357 40.796Z" fill="#4472C4" fill-rule="evenodd" transform="matrix(0.39107 -0.920361 -0.920361 -0.39107 1889.27 1565.14)"/><path d="M256.693 286.126C114.926 286.126-3.36613e-14 158.023-3.36613e-14 0L0 0C0 158.023 114.926 286.126 256.693 286.126Z" fill="#375C9E" fill-rule="evenodd" transform="matrix(0.39107 -0.920361 -0.920361 -0.39107 1889.27 1565.14)"/><path d="M256.693 286.126C384.323 286.126 492.567 181.606 510.764 40.7958L495.357 40.796 513.387 0 526.172 40.796 510.764 40.796C492.567 181.606 384.323 286.127 256.693 286.127L256.693 286.126C114.926 286.126-3.36613e-14 158.023-3.36613e-14 0L0 0C0 158.023 114.926 286.126 256.693 286.126" stroke="#4472C4" stroke-width="4.58333" stroke-miterlimit="8" fill="none" fill-rule="evenodd" transform="matrix(0.39107 -0.920361 -0.920361 -0.39107 1889.27 1565.14)"/><path d="M590.94 0 598.337 27.5799 587.921 27.5799C566.975 122.774 442.379 193.435 295.47 193.435 442.379 193.435 566.975 122.774 587.921 27.5799L577.504 27.5799Z" fill="#4472C4" fill-rule="evenodd" transform="matrix(0.529196 -0.848499 -0.848499 -0.529196 1923.8 1271.94)"/><path d="M295.47 193.435C132.286 193.435-3.82803e-14 106.831 0 0L0 0C-3.82803e-14 106.831 132.286 193.435 295.47 193.435Z" fill="#375C9E" fill-rule="evenodd" transform="matrix(0.529196 -0.848499 -0.848499 -0.529196 1923.8 1271.94)"/><path d="M295.47 193.435C442.38 193.435 566.975 122.774 587.921 27.58L577.504 27.5799 590.94 0 598.337 27.5799 587.921 27.5799C566.975 122.774 442.379 193.435 295.47 193.435L295.47 193.435C132.286 193.435-3.82803e-14 106.831 0 0L0 0C-3.82803e-14 106.831 132.286 193.435 295.47 193.435" stroke="#4472C4" stroke-width="4.58333" stroke-miterlimit="8" fill="none" fill-rule="evenodd" transform="matrix(0.529196 -0.848499 -0.848499 -0.529196 1923.8 1271.94)"/><path d="M2375.71 819.555 2724.52 1036.8 2722.1 1040.69 2373.29 823.445ZM2726.69 1024.65 2742.76 1050.86 2712.15 1047.99Z" fill="#4472C4"/><path d="M2.14056-0.818388 162.528 418.686 158.247 420.323-2.14056 0.818388ZM171.594 410.314 168.571 440.911 145.907 420.135Z" fill="#4472C4" transform="matrix(-1 0 0 1 2684.07 831.5)"/><path d="M0.00297826-2.29166 454.719-1.70071 454.713 2.88262-0.00297826 2.29166ZM450.151-13.165 477.633 0.620735 450.115 14.335Z" fill="#4472C4" transform="matrix(-1 0 0 1 2726.13 1092.5)"/><path d="M2487.92 1267.26 2338.2 856.815 2342.51 855.244 2492.23 1265.69ZM2329.01 865.047 2332.5 834.5 2354.84 855.623Z" fill="#4472C4"/><path d="M1.10898-2.00547 390.033 213.061 387.815 217.072-1.10898 2.00547ZM391.567 200.816 408.979 226.156 378.259 224.882Z" fill="#4472C4" transform="matrix(1 0 0 -1 2244.5 1050.66)"/><path d="M0.12151 2.28844-6.94099 2.66344-6.68251 2.63494-13.745 3.82244-13.522 3.77342-20.397 5.64842-20.2041 5.58651-26.9541 8.08651-26.757 8.00287-33.257 11.1279-33.0855 11.0362-39.3355 14.7237-39.1792 14.6228-45.1167 18.8103-44.951 18.6817-50.451 23.3692-50.3372 23.2653-55.4622 28.2653-55.307 28.098-59.8695 33.5355-59.7505 33.3808-63.7505 39.0683-63.6366 38.8892-67.0741 44.8892-66.9684 44.6807-69.7184 50.8682-69.6342 50.6492-71.6967 56.9617-71.6262 56.6909-72.8762 63.0659-72.8385 62.7789-73.276 69.2789-73.2746 68.993-72.8996 75.493-72.9346 75.2053-71.7471 81.5803-71.8032 81.3475-69.9282 87.66-70.0002 87.454-67.5002 93.6415-67.5925 93.4414-64.4675 99.4414-64.5771 99.2533-60.8896 104.941-60.9968 104.789-56.8093 110.227-56.9427 110.069-52.3177 115.069-52.443 114.943-47.3805 119.631-47.5291 119.505-42.1541 123.692-42.3254 123.571-36.5754 127.258-36.7452 127.16-30.8077 130.285-31.0165 130.188-24.829 132.688-25.035 132.616-18.7225 134.491-18.9553 134.435-12.5803 135.622-12.868 135.587-6.36801 135.962-6.6539 135.964-0.1539 135.526-0.440948 135.564 5.93405 134.314 5.66326 134.384 11.9758 132.322 11.7568 132.406 17.9443 129.656 17.7358 129.762 23.7358 126.324 23.5567 126.438 29.2442 122.438 29.0777 122.567 34.5152 117.942 34.3695 118.077 39.3695 113.015 39.2476 113.148 43.9351 107.586 43.8214 107.732 48.0089 101.857 47.9013 102.023 51.5888 95.773 51.4934 95.9522 54.6184 89.3897 54.456 89.8535 55.7042 84.5121 60.1673 85.5551 58.8628 91.1371 55.5879 98.0145 51.7985 104.437 47.4997 110.468 42.6941 116.171 37.5606 121.369 31.967 126.126 26.1064 130.248 19.9127 133.797 13.5109 136.642 6.9535 138.784 0.298615 140.089-6.489 140.546-13.2769 140.154-19.9126 138.918-26.4447 136.978-32.8404 134.394-38.9669 131.17-44.888 127.372-50.4229 123.06-55.6221 118.246-60.3775 113.105-64.6848 107.512-68.4822 101.655-71.7085 95.4608-74.2907 89.0697-76.231 82.5376-77.467 75.9019-77.8586 69.114-77.4018 62.3264-76.0969 55.6715-73.9544 49.1141-71.1091 42.7123-67.5606 36.5186-63.4433 30.6643-58.7446 25.0644-53.4827 19.9308-47.8441 15.1252-41.7447 10.8236-35.3307 7.0393-28.6464 3.8257-21.7008 1.25327-14.6177-0.678491-7.31406-1.90654-0.12151-2.28844ZM43.541 86.7252 62.5957 62.5957 70.4665 92.3171Z" fill="#4472C4" transform="matrix(1.83697e-16 1 1 -1.83697e-16 1916.5 674.5)"/><path d="M0.12151 2.28844-6.94099 2.66344-6.68251 2.63494-13.745 3.82244-13.522 3.77342-20.397 5.64842-20.2041 5.58651-26.9541 8.08651-26.757 8.00287-33.257 11.1279-33.0855 11.0362-39.3355 14.7237-39.1792 14.6228-45.1167 18.8103-44.951 18.6817-50.451 23.3692-50.3372 23.2653-55.4622 28.2653-55.307 28.098-59.8695 33.5355-59.7505 33.3808-63.7505 39.0683-63.6366 38.8892-67.0741 44.8892-66.9684 44.6807-69.7184 50.8682-69.6342 50.6492-71.6967 56.9617-71.6262 56.6909-72.8762 63.0659-72.8385 62.7789-73.276 69.2789-73.2746 68.993-72.8996 75.493-72.9346 75.2053-71.7471 81.5803-71.8032 81.3475-69.9282 87.66-70.0002 87.454-67.5002 93.6415-67.5925 93.4414-64.4675 99.4414-64.5771 99.2533-60.8896 104.941-60.9968 104.789-56.8093 110.227-56.9427 110.069-52.3177 115.069-52.443 114.943-47.3805 119.631-47.5291 119.505-42.1541 123.692-42.3254 123.571-36.5754 127.258-36.7452 127.16-30.8077 130.285-31.0165 130.188-24.829 132.688-25.035 132.616-18.7225 134.491-18.9553 134.435-12.5803 135.622-12.868 135.587-6.36801 135.962-6.6539 135.964-0.1539 135.526-0.440948 135.564 5.93405 134.314 5.66326 134.384 11.9758 132.322 11.7568 132.406 17.9443 129.656 17.7358 129.762 23.7358 126.324 23.5567 126.438 29.2442 122.438 29.0777 122.567 34.5152 117.942 34.3695 118.077 39.3695 113.015 39.2476 113.148 43.9351 107.586 43.8214 107.732 48.0089 101.857 47.9013 102.023 51.5888 95.773 51.4934 95.9522 54.6184 89.3897 54.456 89.8535 55.7042 84.5121 60.1673 85.5551 58.8628 91.1371 55.5879 98.0145 51.7985 104.437 47.4997 110.468 42.6941 116.171 37.5606 121.369 31.967 126.126 26.1064 130.248 19.9127 133.797 13.5109 136.642 6.9535 138.784 0.298615 140.089-6.489 140.546-13.2769 140.154-19.9126 138.918-26.4447 136.978-32.8404 134.394-38.9669 131.17-44.888 127.372-50.4229 123.06-55.6221 118.246-60.3775 113.105-64.6848 107.512-68.4822 101.655-71.7085 95.4608-74.2907 89.0697-76.231 82.5376-77.467 75.9019-77.8586 69.114-77.4018 62.3264-76.0969 55.6715-73.9544 49.1141-71.1091 42.7123-67.5606 36.5186-63.4433 30.6643-58.7446 25.0644-53.4827 19.9308-47.8441 15.1252-41.7447 10.8236-35.3307 7.0393-28.6464 3.8257-21.7008 1.25327-14.6177-0.678491-7.31406-1.90654-0.12151-2.28844ZM43.541 86.7252 62.5957 62.5957 70.4665 92.3171Z" fill="#4472C4" transform="matrix(1 -1.22465e-16 -1.22465e-16 -1 1619.5 737.096)"/><text fill="#BFBFBF" font-family="Arial,Arial_MSFontService,sans-serif" font-weight="400" font-size="92" transform="matrix(1 0 0 1 1548.83 554)">2<tspan font-family="Malgun Gothic,Malgun Gothic_MSFontService,sans-serif" font-size="92" x="50.9895" y="0">번</tspan><tspan font-family="Malgun Gothic,Malgun Gothic_MSFontService,sans-serif" font-size="92" x="167.865" y="0">이동</tspan></text></g></svg>